<?xml version="1.0" encoding="utf-8"?>
<!-- Generator: Adobe Illustrator 16.0.0, SVG Export Plug-In . SVG Version: 6.00 Build 0)  -->
<!DOCTYPE svg PUBLIC "-//W3C//DTD SVG 1.1//EN" "http://www.w3.org/Graphics/SVG/1.1/DTD/svg11.dtd">
<svg version="1.1" id="Layer_1" xmlns="http://www.w3.org/2000/svg" xmlns:xlink="http://www.w3.org/1999/xlink" x="0px" y="0px"
	 width="400px" height="400px" viewBox="0 0 400 400" enable-background="new 0 0 400 400" xml:space="preserve">
<circle fill="#474658" cx="200" cy="200" r="200"/>
<path id="reset" fill="#F9F9FA" d="M315.333,154.667c0-42.384-50.415-77.019-114.017-79.505c-0.004-0.049-0.019-0.097-0.021-0.146
	C200.863,75.012,200.433,75,200,75c-34.287,0-65.345,13.809-87.929,36.164L105,95l-11,57l21-4.2v112.822l79-45.61v45.61
	l75.872-43.806C297.58,202.218,315.333,179.809,315.333,154.667z M125.834,145.633L149,141l-13.374-6.242
	c14.32-14.133,32.476-22.98,52.106-25.594c2.081-0.088,4.169-0.148,6.268-0.148c25.477,0,49.941,6.471,67.125,17.753
	c7.046,4.625,12.604,9.92,16.077,15.31c2.769,4.299,4.114,8.417,4.114,12.589c0,13.214-11.93,23.826-19.191,23.898
	c-0.079,0.001-0.158,0.006-0.236,0.007L194,139.378v45.611L125.834,145.633z"/>
</svg>
