<?xml version="1.0" encoding="utf-8"?>
<!-- Generator: Adobe Illustrator 16.0.0, SVG Export Plug-In . SVG Version: 6.00 Build 0)  -->
<!DOCTYPE svg PUBLIC "-//W3C//DTD SVG 1.1//EN" "http://www.w3.org/Graphics/SVG/1.1/DTD/svg11.dtd">
<svg version="1.1" id="Layer_1" xmlns="http://www.w3.org/2000/svg" xmlns:xlink="http://www.w3.org/1999/xlink" x="0px" y="0px"
	 width="400px" height="400px" viewBox="0 0 400 400" enable-background="new 0 0 400 400" xml:space="preserve">
<circle fill="#474658" cx="200" cy="200" r="200"/>
<path id="forward" fill="#F9F9FA" d="M200,291.667c-24.485,0-47.504-9.536-64.818-26.851
	c-17.313-17.312-26.848-40.332-26.848-64.816c0-24.485,9.535-47.505,26.848-64.819c17.314-17.313,40.333-26.848,64.818-26.848
	c24.279,0,47.111,9.386,64.373,26.425L251,141l55,11l-11-57l-7.07,16.163C265.346,88.809,234.287,75,200,75
	c-69.036,0-125,55.965-125,125s55.964,125,125,125c34.518,0,65.768-13.991,88.389-36.611l-23.57-23.57
	C247.504,282.131,224.484,291.667,200,291.667z"/>
</svg>
