<?xml version="1.0" encoding="utf-8"?>
<!-- Generator: Adobe Illustrator 16.0.0, SVG Export Plug-In . SVG Version: 6.00 Build 0)  -->
<!DOCTYPE svg PUBLIC "-//W3C//DTD SVG 1.1//EN" "http://www.w3.org/Graphics/SVG/1.1/DTD/svg11.dtd">
<svg version="1.1" id="Layer_1" xmlns="http://www.w3.org/2000/svg" xmlns:xlink="http://www.w3.org/1999/xlink" x="0px" y="0px"
	 width="400px" height="400px" viewBox="0 0 400 400" enable-background="new 0 0 400 400" xml:space="preserve">
<circle fill="#474658" cx="200" cy="200" r="200"/>
<path id="rewind" fill="#F9F9FA" d="M200,75c-34.287,0-65.345,13.809-87.929,36.164L105,95l-11,57l55-11l-13.374-6.242
	c17.264-17.039,40.095-26.425,64.374-26.425c24.484,0,47.505,9.535,64.816,26.848c17.313,17.314,26.851,40.333,26.851,64.819
	c0,24.484-9.536,47.503-26.851,64.816c-17.313,17.314-40.332,26.851-64.816,26.851c-24.485,0-47.504-9.536-64.818-26.851
	l-23.57,23.57C134.232,311.009,165.482,325,200,325c69.035,0,125-55.965,125-125S269.035,75,200,75z"/>
</svg>
