<?xml version="1.0" encoding="utf-8"?>
<!-- Generator: Adobe Illustrator 16.0.0, SVG Export Plug-In . SVG Version: 6.00 Build 0)  -->
<!DOCTYPE svg PUBLIC "-//W3C//DTD SVG 1.1//EN" "http://www.w3.org/Graphics/SVG/1.1/DTD/svg11.dtd">
<svg version="1.1" id="Layer_1" xmlns="http://www.w3.org/2000/svg" xmlns:xlink="http://www.w3.org/1999/xlink" x="0px" y="0px"
	 width="705.21px" height="705.21px" viewBox="0 0 705.21 705.21" enable-background="new 0 0 705.21 705.21" xml:space="preserve">
<g id="Background">
	<g id="Border__x26__Field">
		<polygon fill="#F9D801" points="78.162,511.056 78.322,194.469 352.794,36.001 627.05,194.155 626.886,510.742 352.414,669.208 		
			"/>
		<path fill="#1B1A26" d="M352.804,72.001l243.055,140.162l-0.145,280.57L352.406,633.208L109.352,493.05l0.143-280.573
			L352.804,72.001 M352.785,0.002L47.15,176.461l-0.18,352.603l305.453,176.145L658.058,528.75l0.182-352.602L352.785,0.002
			L352.785,0.002z"/>
	</g>
</g>
<g id="Chevron__x26__Plus">
	<g id="Plus">
		<rect x="232.605" y="225.162" fill="#1B1A26" width="240" height="81"/>
		<rect x="311.605" y="145.162" fill="#1B1A26" width="81" height="240"/>
	</g>
	<path id="Chevron" fill="#1B1A26" d="M352.824,560.048c-59.57-32.025-117.068-62.768-175.452-94.146c0-36.969,0-72.746,0-113.861
		c59.797,31.377,116.271,60.789,175.192,91.711c56.682-29.658,114.197-59.754,175.275-91.711c0,40.467,0,76.117,0,113.861
		C470.546,496.722,413.056,527.648,352.824,560.048z"/>
</g>
</svg>
