<?xml version="1.0" encoding="utf-8"?>
<!-- Generator: Adobe Illustrator 16.0.0, SVG Export Plug-In . SVG Version: 6.00 Build 0)  -->
<!DOCTYPE svg PUBLIC "-//W3C//DTD SVG 1.1//EN" "http://www.w3.org/Graphics/SVG/1.1/DTD/svg11.dtd">
<svg version="1.1" id="Layer_1" xmlns="http://www.w3.org/2000/svg" xmlns:xlink="http://www.w3.org/1999/xlink" x="0px" y="0px"
	 width="1200px" height="800px" viewBox="0 0 1200 800" enable-background="new 0 0 1200 800" xml:space="preserve">
<g opacity="0.4">
	<polygon fill="none" stroke="#1B1A26" points="929.565,173.278 924.994,160.833 919.753,161.642 	"/>
	<polygon fill="none" stroke="#1B1A26" points="990.643,472.961 990.144,474.104 991.169,473.94 	"/>
	<polygon fill="none" stroke="#1B1A26" points="1005.015,471.729 998.666,487.907 1000.736,491.767 1005.952,486.275 
		1012.85,470.479 	"/>
	<polygon fill="none" stroke="#1B1A26" points="1057.545,521.654 1057.939,522.729 1058.891,520.094 	"/>
	<polygon fill="none" stroke="#1B1A26" points="982.425,401.258 962.824,421.128 990.643,472.961 1007.261,434.901 	"/>
	<polygon fill="none" stroke="#1B1A26" points="1037.31,466.571 1046.394,491.299 1056.414,463.521 	"/>
	<polygon fill="none" stroke="#1B1A26" points="1031.304,467.531 1037.31,466.571 1034.588,459.161 	"/>
	<polygon fill="none" stroke="#1B1A26" points="1027.403,439.604 1025.415,441.698 1012.85,470.479 1022.402,468.952 
		1033.783,456.97 	"/>
	<polygon fill="none" stroke="#1B1A26" points="852.078,214.786 870.707,249.496 889.322,246.528 860.327,207.249 	"/>
	<polygon fill="none" stroke="#1B1A26" points="889.322,246.528 892.862,251.322 899.973,244.829 	"/>
	<polygon fill="none" stroke="#1B1A26" points="836.184,174.545 830.917,175.358 844.549,200.759 851.11,194.765 	"/>
	<polygon fill="none" stroke="#1B1A26" points="892.862,251.322 880.246,262.844 889.106,274.845 901.723,263.324 	"/>
	<polygon fill="none" stroke="#1B1A26" points="948.884,327.211 936.528,339.084 946.023,351.946 958.38,340.074 	"/>
	<polygon fill="none" stroke="#1B1A26" points="990.572,383.684 971.819,386.891 982.425,401.258 994.506,389.011 	"/>
	<polygon fill="none" stroke="#1B1A26" points="939.998,158.517 971.125,195.423 974.804,196.585 980.46,191.419 1044.279,211.589 
		1014.835,178.16 948.675,157.177 	"/>
	<polygon fill="none" stroke="#1B1A26" points="1070.897,138.307 1083.203,136.407 1080.263,133.219 959.729,90.619 
		970.469,102.811 	"/>
	<polygon fill="none" stroke="#1B1A26" points="938.525,91.521 990.646,150.697 1010.012,147.707 970.469,102.811 	"/>
	<polygon fill="none" stroke="#1B1A26" points="1014.835,178.16 1045.362,187.842 1036.493,177.771 1005.965,168.09 	"/>
	<polygon fill="none" stroke="#1B1A26" points="959.729,90.619 930.11,56.992 910.938,60.2 927.788,79.33 	"/>
	<polygon fill="none" stroke="#1B1A26" points="812.771,142.83 799.836,153.916 817.226,177.473 830.917,175.358 815.288,146.239 	
		"/>
	<polygon fill="none" stroke="#1B1A26" points="875.051,69.087 891.87,75.031 893.091,73.985 889.353,63.812 863.74,68.098 
		868.97,74.299 	"/>
	<polygon fill="none" stroke="#1B1A26" points="973.279,197.978 999.418,228.97 1051.159,220.718 974.804,196.585 	"/>
	<polygon fill="none" stroke="#1B1A26" points="1108.123,338.372 1087.068,332.896 1105.802,355.106 	"/>
	<polygon fill="none" stroke="#1B1A26" points="1114.632,365.576 1113.248,369.412 1116.255,370.131 1120.485,365.677 
		1159.509,375.002 1166.699,353.609 1166.576,353.578 1112.337,362.855 	"/>
	<polygon fill="none" stroke="#1B1A26" points="1080.698,459.643 1058.891,520.094 1087.522,486.881 1091.541,457.911 	"/>
	<polygon fill="none" stroke="#1B1A26" points="1110.988,375.676 1097.926,411.886 1091.541,457.911 1115.842,454.03 
		1127.519,440.484 1136.895,442.28 1157.809,380.06 1116.255,370.131 	"/>
	<polygon fill="none" stroke="#1B1A26" points="1057.755,325.27 1087.068,332.896 1032.806,268.556 1020.166,280.701 	"/>
	<polygon fill="none" stroke="#1B1A26" points="1009.923,268.556 1019.676,259.186 1026.591,261.188 999.418,228.97 
		979.249,232.187 	"/>
	<polygon fill="none" stroke="#1B1A26" points="803.565,130.358 770.339,85.351 756.921,95.781 790.631,141.445 	"/>
	<polygon fill="none" stroke="#1B1A26" points="1005.897,381.062 1001.626,381.793 994.506,389.011 1022.561,427.016 
		1022.674,426.729 	"/>
	<polygon fill="none" stroke="#1B1A26" points="1004.934,378.438 989.71,336.997 977.496,321.704 958.38,340.074 990.572,383.684 
		1001.626,381.793 	"/>
	<polygon fill="none" stroke="#1B1A26" points="918.58,247.931 901.723,263.324 948.884,327.211 967.561,309.263 	"/>
	<polygon fill="none" stroke="#1B1A26" points="914.28,242.547 918.58,247.931 926.631,240.577 	"/>
	<polygon fill="none" stroke="#1B1A26" points="1022.994,427.602 1022.561,427.016 1010.732,457.158 1025.415,441.698 
		1026.912,438.269 	"/>
	<polygon fill="none" stroke="#1B1A26" points="1052.727,412.942 1036.62,453.982 1074.09,414.529 1088.097,375.699 	"/>
	<polygon fill="none" stroke="#1B1A26" points="1060.066,394.238 1044.298,374.493 1022.616,378.202 1035.424,394.238 
		1022.674,426.729 1022.994,427.602 1028.383,434.901 1026.912,438.269 1027.403,439.604 1052.727,412.942 	"/>
	<polygon fill="none" stroke="#1B1A26" points="880.779,167.659 905.658,144.931 865.655,97.5 840.383,119.163 879.297,167.889 	"/>
	<polygon fill="none" stroke="#1B1A26" points="923.779,149.281 928.54,144.931 911.908,125.21 920.352,148.194 	"/>
	<polygon fill="none" stroke="#1B1A26" points="906.793,143.895 905.658,144.931 915.616,156.738 921.512,151.353 920.352,148.194 	
		"/>
	<polygon fill="none" stroke="#1B1A26" points="889.469,180.626 875.223,193.642 909.3,236.312 923.549,223.299 	"/>
	<polygon fill="none" stroke="#1B1A26" points="1074.09,414.529 1056.414,463.521 1080.698,459.643 1097.926,411.886 
		1101.573,385.59 	"/>
	<polygon fill="none" stroke="#1B1A26" points="851.11,194.765 860.327,207.249 875.223,193.642 865.57,181.555 	"/>
	<polygon fill="none" stroke="#1B1A26" points="825.756,131.7 813.242,142.426 815.288,146.239 836.184,174.545 857.361,171.276 	
		"/>
	<polygon fill="none" stroke="#1B1A26" points="840.383,119.163 830.729,107.076 816.103,119.613 825.756,131.7 	"/>
	<polygon fill="none" stroke="#1B1A26" points="878.937,86.117 868.97,74.299 855.688,85.683 865.655,97.5 	"/>
	<polygon fill="none" stroke="#1B1A26" points="911.908,125.21 893.714,75.683 891.87,75.031 878.937,86.117 	"/>
	<polygon fill="none" stroke="#1B1A26" points="938.525,91.521 927.788,79.33 898.805,69.087 893.091,73.985 893.714,75.683 	"/>
	<polygon fill="none" stroke="#1B1A26" points="855.688,85.683 843.688,71.454 807.162,77.565 830.729,107.076 	"/>
	<polygon fill="none" stroke="#1B1A26" points="928.54,144.931 935.288,152.931 948.675,157.177 964.065,154.801 929.676,143.895 	
		"/>
	<polygon fill="none" stroke="#1B1A26" points="769.015,159.973 777.676,172.911 799.836,153.916 790.631,141.445 	"/>
	<polygon fill="none" stroke="#1B1A26" points="813.242,142.426 805.757,128.48 803.565,130.358 812.771,142.83 	"/>
	<polygon fill="none" stroke="#1B1A26" points="1097.616,365.677 1104.12,367.23 1104.542,364.188 1091.441,366.43 
		1088.097,375.699 	"/>
	<polygon fill="none" stroke="#1B1A26" points="991.438,308.308 1020.166,280.701 1009.923,268.556 981.503,295.866 	"/>
	<polygon fill="none" stroke="#1B1A26" points="1028.428,354.622 1044.298,374.493 1091.441,366.43 1091.749,365.576 
		1057.755,325.27 1057.457,325.192 	"/>
	<polygon fill="none" stroke="#1B1A26" points="1101.573,385.59 1110.988,375.676 1113.248,369.412 1104.12,367.23 	"/>
	<polygon fill="none" stroke="#1B1A26" points="952.759,236.411 979.249,232.187 960.354,209.782 947.341,221.664 	"/>
	<polygon fill="none" stroke="#1B1A26" points="950.78,198.431 960.354,209.782 973.279,197.978 971.125,195.423 958.458,191.419 	
		"/>
	<polygon fill="none" stroke="#1B1A26" points="923.779,149.281 921.512,151.353 924.994,160.833 939.998,158.517 935.288,152.931 	
		"/>
	<polygon fill="none" stroke="#1B1A26" points="991.169,473.94 992.478,476.379 995.442,473.259 	"/>
	<polygon fill="none" stroke="#1B1A26" points="1007.3,54.154 990.31,46.918 953.066,53.15 1038.442,87.902 	"/>
	<polygon fill="none" stroke="#1B1A26" points="953.066,53.15 912.006,36.437 930.11,56.992 	"/>
	<polygon fill="none" stroke="#1B1A26" points="1083.203,136.407 1091.763,145.682 1132.839,160.2 1133.949,152.193 
		1087.434,135.753 	"/>
	<polygon fill="none" stroke="#1B1A26" points="1080.263,133.219 1087.434,135.753 1131.611,128.933 1136.357,134.836 
		1137.287,128.136 1038.442,87.902 	"/>
	<polygon fill="none" stroke="#1B1A26" points="821.723,45.41 804.168,24.596 791.251,26.779 775.863,38.375 796.895,64.709 	"/>
	<polygon fill="none" stroke="#1B1A26" points="910.938,60.2 877.713,22.479 873.545,20.781 889.353,63.812 	"/>
	<polygon fill="none" stroke="#1B1A26" points="762.715,48.284 760.482,49.967 770.044,61.939 	"/>
	<polygon fill="none" stroke="#1B1A26" points="863.74,68.098 835.544,34.667 821.723,45.41 843.688,71.454 	"/>
	<polygon fill="none" stroke="#1B1A26" points="1051.159,220.718 1052.768,221.227 1052.177,220.556 	"/>
	<polygon fill="none" stroke="#1B1A26" points="1070.897,138.307 1010.012,147.707 1036.493,177.771 1126.444,206.299 
		1129.223,186.273 1091.763,145.682 	"/>
	<polygon fill="none" stroke="#1B1A26" points="1114.631,291.462 1115.269,286.859 1108.97,285.036 	"/>
	<polygon fill="none" stroke="#1B1A26" points="1037.26,264.276 1108.97,285.036 1101.139,276.145 1042.558,259.186 	"/>
	<polygon fill="none" stroke="#1B1A26" points="1074.767,221.225 1071.468,217.479 1065.784,218.386 	"/>
	<polygon fill="none" stroke="#1B1A26" points="1071.468,217.479 1116.281,210.333 1045.362,187.842 	"/>
	<polygon fill="none" stroke="#1B1A26" points="674.579,46.504 691.176,43.697 685.868,35.771 673.06,44.234 	"/>
	<polygon fill="none" stroke="#1B1A26" points="617.446,289.885 521.617,372.022 510.025,402.322 646.635,285.23 	"/>
	<polygon fill="none" stroke="#1B1A26" points="765.936,182.974 757.274,170.036 733.52,190.396 762.496,185.922 	"/>
	<polygon fill="none" stroke="#1B1A26" points="706.634,94.388 700.085,95.483 533.076,221.343 610.83,209.339 724.459,121.014 	"/>
	<polygon fill="none" stroke="#1B1A26" points="760.482,49.967 747.826,34.12 734.219,36.421 750.032,57.842 	"/>
	<polygon fill="none" stroke="#1B1A26" points="803.157,238.574 811.84,251.546 823.306,241.071 814.623,228.101 	"/>
	<polygon fill="none" stroke="#1B1A26" points="847.714,218.773 823.306,241.071 832.975,255.513 870.428,249.541 	"/>
	<polygon fill="none" stroke="#1B1A26" points="762.496,185.922 646.635,285.23 774.389,264.856 803.157,238.574 767.402,185.165 	
		"/>
	<polygon fill="none" stroke="#1B1A26" points="674.579,46.504 667.921,47.628 560.019,118.922 700.085,95.483 704.925,91.835 	"/>
	<polygon fill="none" stroke="#1B1A26" points="673.06,44.234 649.835,9.541 560.147,65.849 667.921,47.628 	"/>
	<polygon fill="none" stroke="#1B1A26" points="736.463,68.068 715.444,39.595 691.176,43.697 717.206,82.581 	"/>
	<polygon fill="none" stroke="#1B1A26" points="1166.576,353.578 1166.719,353.554 1166.846,353.177 1167.185,351.13 
		1114.631,291.462 1108.123,338.372 	"/>
	<polygon fill="none" stroke="#1B1A26" points="299.972,229.195 269.381,310.95 560.019,118.922 444.941,138.179 	"/>
	<polygon fill="none" stroke="#1B1A26" points="444.941,138.179 560.147,65.849 304.345,109.094 258.165,133.45 199.034,292.567 
		299.972,229.195 326.619,157.979 	"/>
	<polygon fill="none" stroke="#1B1A26" points="889.106,274.845 885.89,277.783 924.825,350.329 936.528,339.084 	"/>
	<polygon fill="none" stroke="#1B1A26" points="870.428,249.541 871.541,251.05 870.707,249.496 	"/>
	<polygon fill="none" stroke="#1B1A26" points="871.541,251.05 878.652,264.299 880.246,262.844 	"/>
	<polygon fill="none" stroke="#1B1A26" points="784.148,182.579 814.623,228.101 838.498,206.288 817.226,177.473 	"/>
	<polygon fill="none" stroke="#1B1A26" points="844.549,200.759 838.498,206.288 847.714,218.773 852.078,214.786 	"/>
	<polygon fill="none" stroke="#1B1A26" points="990.144,474.104 980.354,475.667 985.646,483.571 986.32,482.862 	"/>
	<polygon fill="none" stroke="#1B1A26" points="807.162,77.565 796.895,64.709 781.692,76.525 785.428,81.203 	"/>
	<polygon fill="none" stroke="#1B1A26" points="946.023,351.946 932.611,364.835 946.75,391.179 971.819,386.891 	"/>
	<polygon fill="none" stroke="#1B1A26" points="946.75,391.179 926.153,394.702 951.518,432.591 962.824,421.128 	"/>
	<polygon fill="none" stroke="#1B1A26" points="769.272,83.906 750.032,57.842 736.463,68.068 750.477,87.051 	"/>
	<polygon fill="none" stroke="#1B1A26" points="773.001,83.282 769.272,83.906 770.339,85.351 	"/>
	<polygon fill="none" stroke="#1B1A26" points="765.936,182.974 767.402,185.165 784.148,182.579 777.676,172.911 	"/>
	<polygon fill="none" stroke="#1B1A26" points="778.997,78.621 773.001,83.282 780.798,81.978 	"/>
	<polygon fill="none" stroke="#1B1A26" points="736.61,111.568 724.459,121.014 757.274,170.036 769.015,159.973 	"/>
	<polygon fill="none" stroke="#1B1A26" points="717.206,82.581 704.925,91.835 706.634,94.388 723.248,91.607 	"/>
	<polygon fill="none" stroke="#1B1A26" points="1086.874,591.095 1085.049,596.525 1096.539,627.802 1110.166,587.263 	"/>
	<polygon fill="none" stroke="#1B1A26" points="1166.699,353.609 1166.771,353.628 1166.785,353.542 1166.719,353.554 	"/>
	<polygon fill="none" stroke="#1B1A26" points="1127.853,534.642 1141.382,494.391 1139.923,494.17 1104.562,538.472 
		1089.842,582.268 	"/>
	<polygon fill="none" stroke="#1B1A26" points="1128.597,584.229 1139.148,520.489 1127.853,534.642 1110.166,587.263 	"/>
	<polygon fill="none" stroke="#1B1A26" points="1087.522,486.881 1075.804,571.357 1076.595,573.512 1104.562,538.472 
		1133.916,451.144 1115.842,454.03 	"/>
	<polygon fill="none" stroke="#1B1A26" points="1133.916,451.144 1151.081,448.402 1151.628,445.103 1136.895,442.28 	"/>
	<polygon fill="none" stroke="#1B1A26" points="992.478,476.379 986.32,482.862 985.867,483.9 994.928,497.435 998.666,487.907 	"/>
	<polygon fill="none" stroke="#1B1A26" points="1157.809,380.06 1162.221,381.114 1163.091,375.857 1159.509,375.002 	"/>
	<polygon fill="none" stroke="#1B1A26" points="1022.402,468.952 1005.952,486.275 1002.29,494.661 1012.899,514.428 
		1031.304,467.531 	"/>
	<polygon fill="none" stroke="#1B1A26" points="995.104,497.697 998.65,502.997 1002.29,494.661 1000.736,491.767 	"/>
	<polygon fill="none" stroke="#1B1A26" points="1046.394,491.299 1027.94,542.452 1032.42,550.8 1057.545,521.654 	"/>
	<polygon fill="none" stroke="#1B1A26" points="1076.595,573.512 1075.275,575.165 1072.744,593.42 1082.18,591.867 
		1082.973,590.873 	"/>
	<polygon fill="none" stroke="#1B1A26" points="1075.804,571.357 1057.939,522.729 1041.625,567.951 1056.711,596.059 
		1058.886,595.7 1075.275,575.165 	"/>
	<polygon fill="none" stroke="#1B1A26" points="1089.842,582.268 1082.973,590.873 1083.272,591.688 1086.874,591.095 	"/>
	<polygon fill="none" stroke="#1B1A26" points="201.489,897.25 197.343,787.613 154.753,897.25 	"/>
	<polygon fill="none" stroke="#1B1A26" points="726.798,897.25 723.126,884.904 718.404,897.25 	"/>
	<polygon fill="none" stroke="#1B1A26" points="787.605,897.25 805.392,897.25 878.906,728.877 859.014,751.952 	"/>
	<polygon fill="none" stroke="#1B1A26" points="826.508,897.25 838.03,897.25 857.207,848.382 836.539,874.277 	"/>
	<polygon fill="none" stroke="#1B1A26" points="611.915,897.25 596.941,836.547 574.502,897.25 	"/>
	<polygon fill="none" stroke="#1B1A26" points="461.755,897.25 484.637,897.25 424.783,625.144 410.255,663.121 	"/>
	<polygon fill="none" stroke="#1B1A26" points="393.677,897.25 417.433,897.25 385.764,727.141 369.783,768.914 	"/>
	<polygon fill="none" stroke="#1B1A26" points="468.646,638.723 525.749,897.25 547.751,897.25 490.649,638.723 850.834,309.796 
		842.487,297.326 	"/>
	<polygon fill="none" stroke="#1B1A26" points="749.077,424.991 695.063,571.109 868.358,404.588 	"/>
	<polygon fill="none" stroke="#1B1A26" points="1005.972,897.25 1030.598,897.25 1039.546,832.734 1019.62,856.646 	"/>
	<polygon fill="none" stroke="#1B1A26" points="1097.728,770.707 1102.433,757.273 1099.336,760.988 	"/>
	<polygon fill="none" stroke="#1B1A26" points="862.667,897.25 886.098,837.545 838.445,897.25 	"/>
	<polygon fill="none" stroke="#1B1A26" points="1076.779,897.25 1097.728,770.707 1053.409,897.25 	"/>
	<polygon fill="none" stroke="#1B1A26" points="922.834,897.25 935.752,897.25 964.829,820.093 930.98,874.667 	"/>
	<polygon fill="none" stroke="#1B1A26" points="958.874,897.25 981.757,897.25 985.943,891.373 1006.383,830.563 	"/>
	<polygon fill="none" stroke="#1B1A26" points="63.22,897.25 107.118,897.25 113.587,727.324 54.125,886.238 	"/>
	<polygon fill="none" stroke="#1B1A26" points="736.092,-1.32 737.64,1.565 742.007,-1.32 	"/>
	<polygon fill="none" stroke="#1B1A26" points="642.564,-1.32 643.398,-0.074 650.348,-1.32 	"/>
	<polygon fill="none" stroke="#1B1A26" points="667.134,-1.32 661.038,-1.32 662.534,0.915 663.99,0.653 	"/>
	<polygon fill="none" stroke="#1B1A26" points="719.523,-1.32 706.357,-1.32 718.045,14.512 727.289,8.404 	"/>
	<polygon fill="none" stroke="#1B1A26" points="877.05,-1.32 879.771,-0.161 878.75,-1.32 	"/>
	<polygon fill="none" stroke="#1B1A26" points="805.193,-1.32 814.265,9.436 828.537,-1.32 	"/>
	<polygon fill="none" stroke="#1B1A26" points="513.694,-1.32 397.59,-1.32 250.746,70.327 443.312,35.801 	"/>
	<polygon fill="none" stroke="#1B1A26" points="878.652,264.299 853.955,286.854 862.303,299.323 885.89,277.783 	"/>
	<polygon fill="none" stroke="#1B1A26" points="1095.146,897.25 1096.464,897.25 1100.76,890.622 1104.768,866.408 	"/>
	<polygon fill="none" stroke="#1B1A26" points="242.717,897.25 297.196,897.25 263.175,618.15 230.95,701.104 	"/>
	<polygon fill="none" stroke="#1B1A26" points="-1.32,625.951 -1.32,694.292 61.826,519.199 67.731,434.474 	"/>
	<polygon fill="none" stroke="#1B1A26" points="331.97,897.25 328.979,875.573 320.688,897.25 	"/>
	<polygon fill="none" stroke="#1B1A26" points="-1.32,886.661 7.416,897.25 35.476,897.25 49.593,694.698 -1.32,831.701 	"/>
	<polygon fill="none" stroke="#1B1A26" points="865.426,-1.32 856.752,-1.32 869.805,13.499 870.808,13.33 	"/>
	<polygon fill="none" stroke="#1B1A26" points="1200.88,92.918 1200.88,89.184 1183.835,74.369 1178.798,71.85 	"/>
	<polygon fill="none" stroke="#1B1A26" points="1200.88,82.898 1189.493,77.2 1200.88,86.54 	"/>
	<polygon fill="none" stroke="#1B1A26" points="1200.88,165.174 1200.88,162.338 1198.838,159.917 1198.429,162.381 	"/>
	<polygon fill="none" stroke="#1B1A26" points="1200.88,157.104 1200.88,154.021 1199.881,153.614 1199.566,155.512 	"/>
	<polygon fill="none" stroke="#1B1A26" points="1200.88,160.048 1200.88,158.283 1199.403,156.496 1199.098,158.339 	"/>
	<polygon fill="none" stroke="#1B1A26" points="1200.88,63.202 1200.88,55.042 1178.024,42.99 	"/>
	<polygon fill="none" stroke="#1B1A26" points="1200.88,69.179 1200.88,67.767 1163.649,35.41 1157.227,32.024 	"/>
	<polygon fill="none" stroke="#1B1A26" points="40.64,9.912 39.031,14.643 62.348,5.604 	"/>
	<polygon fill="none" stroke="#1B1A26" points="-1.32,30.283 -1.32,65.499 25.562,54.244 39.031,14.643 	"/>
	<polygon fill="none" stroke="#1B1A26" points="1187.166,897.25 1200.88,873.533 1200.88,834.578 1185.479,897.25 	"/>
	<polygon fill="none" stroke="#1B1A26" points="80.213,-1.32 62.348,5.604 97.246,-1.32 	"/>
	<polygon fill="none" stroke="#1B1A26" points="117.478,-1.32 60.871,9.912 49.152,44.369 158.291,-1.32 	"/>
	<polygon fill="none" stroke="#1B1A26" points="25.562,54.244 -1.32,133.285 -1.32,192.775 49.152,44.369 	"/>
	<polygon fill="none" stroke="#1B1A26" points="1200.88,384.887 1200.88,362.501 1188.707,359.335 1185.102,381.117 	"/>
	<polygon fill="none" stroke="#1B1A26" points="1200.88,621.012 1194.596,653.526 1200.88,652.341 	"/>
	<polygon fill="none" stroke="#1B1A26" points="1200.88,589.675 1200.88,572.336 1196.278,573.093 1183.489,614.085 	"/>
	<polygon fill="none" stroke="#1B1A26" points="1200.88,558.344 1197.424,569.422 1200.88,569.751 	"/>
	<polygon fill="none" stroke="#1B1A26" points="1197.424,569.422 1192.743,568.977 1188.951,574.299 1196.278,573.093 	"/>
	<polygon fill="none" stroke="#1B1A26" points="1200.88,229.906 1200.88,215.086 1191.613,203.56 1187.932,225.799 	"/>
	<polygon fill="none" stroke="#1B1A26" points="1164.363,897.25 1172.131,897.25 1176.517,874.559 1165.079,894.339 	"/>
	<polygon fill="none" stroke="#1B1A26" points="1200.88,832.424 1200.88,748.653 1200.748,749.192 1176.517,874.559 	"/>
	<polygon fill="none" stroke="#1B1A26" points="1200.88,347.71 1200.88,311.643 1196.799,310.462 1190.334,349.514 	"/>
	<polygon fill="none" stroke="#1B1A26" points="1200.88,285.804 1197.845,304.141 1200.88,305.02 	"/>
	<polygon fill="none" stroke="#1B1A26" points="1149.063,897.25 1163.396,897.25 1165.079,894.339 1200.748,749.192 
		1200.88,748.507 1200.88,736.13 1169.173,785.056 1151.401,877.004 	"/>
	<polygon fill="none" stroke="#1B1A26" points="1200.88,503.413 1200.88,500.345 1195.012,499.455 1194.663,502.471 	"/>
	<polygon fill="none" stroke="#1B1A26" points="1200.88,440.45 1200.88,390.353 1184.232,386.374 1174.585,444.648 	"/>
	<polygon fill="none" stroke="#1B1A26" points="1200.88,448.649 1200.215,454.411 1200.88,454.539 	"/>
	<polygon fill="none" stroke="#1B1A26" points="1140.849,102.461 1139.726,110.557 1156.922,117.881 	"/>
	<polygon fill="none" stroke="#1B1A26" points="1037.26,264.276 1026.591,261.188 1032.806,268.556 	"/>
	<polygon fill="none" stroke="#1B1A26" points="1065.784,218.386 1044.279,211.589 1052.177,220.556 	"/>
	<polygon fill="none" stroke="#1B1A26" points="770.044,61.939 778.997,78.621 781.692,76.525 	"/>
	<polygon fill="none" stroke="#1B1A26" points="750.477,87.051 723.248,91.607 736.61,111.568 756.921,95.781 	"/>
	<polygon fill="none" stroke="#1B1A26" points="1005.965,168.09 990.646,150.697 964.065,154.801 	"/>
	<polygon fill="none" stroke="#1B1A26" points="999.34,504.027 998.65,502.997 989.13,524.801 	"/>
	<polygon fill="none" stroke="#1B1A26" points="785.428,81.203 780.798,81.978 805.757,128.48 816.103,119.613 	"/>
	<polygon fill="none" stroke="#1B1A26" points="1125.48,213.25 1126.102,208.767 1116.281,210.333 	"/>
	<polygon fill="none" stroke="#1B1A26" points="880.779,167.659 879.816,168.54 889.469,180.626 908.316,163.409 	"/>
	<polygon fill="none" stroke="#1B1A26" points="1156.809,160.273 1136.357,134.836 1133.949,152.193 	"/>
	<polygon fill="none" stroke="#1B1A26" points="1139.726,110.557 1128.559,105.801 1138.771,117.441 	"/>
	<polygon fill="none" stroke="#1B1A26" points="1048.767,597.365 1040.904,618.229 1057.471,597.474 1056.711,596.059 	"/>
	<polygon fill="none" stroke="#1B1A26" points="1048.041,772.091 1112.469,681.654 1113.666,674.424 1096.539,627.802 	"/>
	<polygon fill="none" stroke="#1B1A26" points="1105.802,355.106 1104.542,364.188 1112.337,362.855 	"/>
	<polygon fill="none" stroke="#1B1A26" points="1131.508,207.905 1126.444,206.299 1126.102,208.767 	"/>
	<polygon fill="none" stroke="#1B1A26" points="981.503,295.866 968.72,279.859 976.4,300.769 	"/>
	<polygon fill="none" stroke="#1B1A26" points="932.828,234.918 947.341,221.664 941.814,206.619 923.549,223.299 	"/>
	<polygon fill="none" stroke="#1B1A26" points="968.72,279.859 952.759,236.411 936.138,239.062 	"/>
	<polygon fill="none" stroke="#1B1A26" points="926.631,240.577 936.138,239.062 932.828,234.918 	"/>
	<polygon fill="none" stroke="#1B1A26" points="857.361,171.276 865.57,181.555 879.816,168.54 879.297,167.889 	"/>
	<polygon fill="none" stroke="#1B1A26" points="1034.588,459.161 1036.62,453.982 1033.783,456.97 	"/>
	<polygon fill="none" stroke="#1B1A26" points="919.753,161.642 915.616,156.738 908.316,163.409 	"/>
	<polygon fill="none" stroke="#1B1A26" points="950.78,198.431 929.565,173.278 941.814,206.619 	"/>
	<polygon fill="none" stroke="#1B1A26" points="899.973,244.829 914.28,242.547 909.3,236.312 	"/>
	<polygon fill="none" stroke="#1B1A26" points="995.442,473.259 1005.015,471.729 1010.732,457.158 	"/>
	<polygon fill="none" stroke="#1B1A26" points="1004.934,378.438 1005.897,381.062 1022.616,378.202 1014.811,368.427 	"/>
	<polygon fill="none" stroke="#1B1A26" points="976.4,300.769 967.561,309.263 977.496,321.704 982.371,317.02 	"/>
	<polygon fill="none" stroke="#1B1A26" points="989.71,336.997 1014.811,368.427 1028.428,354.622 991.438,308.308 982.371,317.02 	
		"/>
	<polygon fill="none" stroke="#1B1A26" points="1049.911,-1.32 1034.597,-1.32 1036.189,0.497 1067.336,16.08 	"/>
	<polygon fill="none" stroke="#1B1A26" points="1094.502,29.483 1094.218,29.53 1094.769,29.806 	"/>
	<polygon fill="none" stroke="#1B1A26" points="1130.812,47.84 1124.799,42.909 1127.604,46.235 	"/>
	<polygon fill="none" stroke="#1B1A26" points="1098.85,12.14 1081.518,-1.32 1080.318,-1.32 1113.213,33.405 1124.799,42.909 	"/>
	<polygon fill="none" stroke="#1B1A26" points="1190.768,150.348 1190.199,149.674 1189.966,149.579 	"/>
	<polygon fill="none" stroke="#1B1A26" points="1166.235,495.092 1160.155,494.17 1157.971,496.906 1165.74,498.084 	"/>
	<polygon fill="none" stroke="#1B1A26" points="1174.963,304.14 1138.501,293.585 1170.665,330.102 	"/>
	<polygon fill="none" stroke="#1B1A26" points="1160.771,446.855 1157.566,446.24 1157.166,447.431 	"/>
	<polygon fill="none" stroke="#1B1A26" points="1032.773,-1.213 1044.862,10.383 1036.189,0.497 	"/>
	<polygon fill="none" stroke="#1B1A26" points="1062.855,-1.32 1057.441,-1.32 1079.858,22.346 1084.973,24.905 	"/>
	<polygon fill="none" stroke="#1B1A26" points="1032.56,-1.32 1032.773,-1.213 1032.662,-1.32 	"/>
	<polygon fill="none" stroke="#1B1A26" points="1027.602,832.899 1042.406,812.119 1047.9,772.507 	"/>
	<polygon fill="none" stroke="#1B1A26" points="1060.432,5.06 1072.258,18.542 1076.916,20.874 	"/>
	<polygon fill="none" stroke="#1B1A26" points="1053.78,-1.32 1060.432,5.06 1054.835,-1.32 	"/>
	<polygon fill="none" stroke="#1B1A26" points="1101.3,44.264 1089.535,30.314 1087.698,30.622 1093.858,37.126 	"/>
	<polygon fill="none" stroke="#1B1A26" points="1142.429,91.063 1159.164,107.774 1148.17,94.462 1142.751,88.742 	"/>
	<polygon fill="none" stroke="#1B1A26" points="1142.429,91.063 1131.914,80.564 1142.195,92.754 	"/>
	<polygon fill="none" stroke="#1B1A26" points="1142.751,88.742 1142.852,88.023 1127.345,69.247 1101.3,44.264 1106.82,50.809 	"/>
	<polygon fill="none" stroke="#1B1A26" points="1141.534,97.519 1160.869,119.562 1167.009,122.176 1142.195,92.754 	"/>
	<polygon fill="none" stroke="#1B1A26" points="1131.914,80.564 1106.82,50.809 1093.858,37.126 1087.17,30.71 1083.474,31.329 
		1089.59,38.301 	"/>
	<polygon fill="none" stroke="#1B1A26" points="1089.59,38.301 1082.73,31.453 1069.188,33.719 1140.849,102.461 1141.534,97.519 	
		"/>
	<polygon fill="none" stroke="#1B1A26" points="921.699,679.236 925.159,675.223 940.316,636.6 	"/>
	<polygon fill="none" stroke="#1B1A26" points="1172.52,132.842 1160.869,119.562 1156.922,117.881 	"/>
	<polygon fill="none" stroke="#1B1A26" points="216.088,453.38 269.381,310.95 209.901,350.25 	"/>
	<polygon fill="none" stroke="#1B1A26" points="409.938,240.354 369.409,344.686 533.076,221.343 	"/>
	<polygon fill="none" stroke="#1B1A26" points="180.51,342.415 199.034,292.567 179.098,305.083 	"/>
	<polygon fill="none" stroke="#1B1A26" points="304.345,109.094 430.615,42.498 236.421,77.316 217.935,86.336 187.503,170.72 
		258.165,133.45 264.727,115.792 	"/>
	<polygon fill="none" stroke="#1B1A26" points="131.459,257.758 128.551,334.182 187.503,170.72 157.057,186.777 	"/>
	<polygon fill="none" stroke="#1B1A26" points="879.771,-0.161 888.951,10.262 899.898,8.411 	"/>
	<polygon fill="none" stroke="#1B1A26" points="133.692,199.1 157.057,186.777 188.014,100.936 87.563,149.947 67.731,434.474 
		131.459,257.758 	"/>
	<polygon fill="none" stroke="#1B1A26" points="220.135,80.237 236.421,77.316 250.746,70.327 195.478,80.237 188.014,100.936 
		217.935,86.336 	"/>
	<polygon fill="none" stroke="#1B1A26" points="646.04,3.872 643.398,-0.074 443.312,35.801 430.615,42.498 	"/>
	<polygon fill="none" stroke="#1B1A26" points="122.272,499.125 113.587,727.324 187.585,529.555 180.51,342.415 	"/>
	<polygon fill="none" stroke="#1B1A26" points="662.842,1.375 662.534,0.915 646.04,3.872 649.835,9.541 	"/>
	<polygon fill="none" stroke="#1B1A26" points="187.585,529.555 197.343,787.613 230.95,701.104 216.088,453.38 	"/>
	<polygon fill="none" stroke="#1B1A26" points="61.826,519.199 49.593,694.698 122.272,499.125 128.551,334.182 	"/>
	<polygon fill="none" stroke="#1B1A26" points="775.863,38.375 769.534,30.45 754.507,32.991 762.715,48.284 	"/>
	<polygon fill="none" stroke="#1B1A26" points="800.274,19.979 782.312,-1.32 744.161,-1.32 769.534,30.45 791.251,26.779 	"/>
	<polygon fill="none" stroke="#1B1A26" points="685.868,35.771 703.851,23.89 685.241,-1.32 674.997,-1.32 663.99,0.653 
		662.842,1.375 	"/>
	<polygon fill="none" stroke="#1B1A26" points="754.507,32.991 737.64,1.565 727.289,8.404 747.826,34.12 	"/>
	<polygon fill="none" stroke="#1B1A26" points="824.194,21.21 814.265,9.436 800.274,19.979 804.168,24.596 	"/>
	<polygon fill="none" stroke="#1B1A26" points="734.219,36.421 718.045,14.512 703.851,23.89 715.444,39.595 	"/>
	<polygon fill="none" stroke="#1B1A26" points="862.303,299.323 850.834,309.796 896.311,377.729 907.557,366.923 	"/>
	<polygon fill="none" stroke="#1B1A26" points="905.269,391.109 896.311,377.729 868.358,404.588 896.196,399.826 	"/>
	<polygon fill="none" stroke="#1B1A26" points="340.297,419.626 369.409,344.686 241.584,441.017 263.175,618.15 285.529,560.609 
		273.268,471.729 	"/>
	<polygon fill="none" stroke="#1B1A26" points="895.688,489.189 940.508,443.752 909.572,397.538 896.196,399.826 682.458,605.21 
		610.666,799.422 634.793,897.25 672.393,897.25 633.224,755.266 861.016,524.338 873.076,492.8 	"/>
	<polygon fill="none" stroke="#1B1A26" points="682.458,605.21 695.063,571.109 562.816,698.188 596.941,836.547 610.666,799.422 
		585.698,698.188 	"/>
	<polygon fill="none" stroke="#1B1A26" points="832.975,255.513 816.278,258.176 842.487,297.326 853.955,286.854 	"/>
	<polygon fill="none" stroke="#1B1A26" points="448.834,562.276 510.025,402.322 350.715,538.873 385.764,727.141 410.255,663.121 
		398.24,608.498 	"/>
	<polygon fill="none" stroke="#1B1A26" points="521.617,372.022 548.854,300.824 617.446,289.885 733.52,190.396 610.83,209.339 
		340.297,419.626 285.529,560.609 328.979,875.573 369.783,768.914 326.953,538.873 	"/>
	<polygon fill="none" stroke="#1B1A26" points="424.783,625.144 436.539,594.413 421.122,608.498 	"/>
	<polygon fill="none" stroke="#1B1A26" points="802.11,260.436 816.278,258.176 811.84,251.546 	"/>
	<polygon fill="none" stroke="#1B1A26" points="448.834,562.276 436.539,594.413 802.11,260.436 774.389,264.856 	"/>
	<polygon fill="none" stroke="#1B1A26" points="1129.223,186.273 1146.916,205.448 1187.878,198.915 1166.242,172.005 
		1132.839,160.2 	"/>
	<polygon fill="none" stroke="#1B1A26" points="1185.664,147.828 1189.966,149.579 1172.52,132.842 	"/>
	<polygon fill="none" stroke="#1B1A26" points="1137.287,128.136 1154.185,135.014 1138.771,117.441 	"/>
	<polygon fill="none" stroke="#1B1A26" points="1167.009,122.176 1190.199,149.674 1195.577,151.864 1173.258,124.838 	"/>
	<polygon fill="none" stroke="#1B1A26" points="1166.242,172.005 1195.145,182.221 1195.216,181.791 1185.117,170.278 
		1156.809,160.273 	"/>
	<polygon fill="none" stroke="#1B1A26" points="860.328,15.401 873.545,20.781 871.632,15.574 869.805,13.499 824.194,21.21 
		835.544,34.667 	"/>
	<polygon fill="none" stroke="#1B1A26" points="1178.48,127.062 1179.434,127.468 1156.131,102.867 1164.93,113.53 	"/>
	<polygon fill="none" stroke="#1B1A26" points="1083.256,230.863 1121.366,242.908 1122.29,236.245 1074.767,221.225 	"/>
	<polygon fill="none" stroke="#1B1A26" points="1052.768,221.227 1101.139,276.145 1116.152,280.491 1117.624,269.882 
		1083.256,230.863 	"/>
	<polygon fill="none" stroke="#1B1A26" points="963.658,478.334 895.688,489.189 861.016,524.338 803.102,675.777 974.806,494.986 	
		"/>
	<polygon fill="none" stroke="#1B1A26" points="1122.29,236.245 1183.024,255.44 1184.549,246.229 1165.965,226.09 1125.48,213.25 	
		"/>
	<polygon fill="none" stroke="#1B1A26" points="1156.497,215.83 1146.916,205.448 1131.508,207.905 	"/>
	<polygon fill="none" stroke="#1B1A26" points="1159.164,107.774 1173.258,124.838 1174.801,125.495 1164.93,113.53 	"/>
	<polygon fill="none" stroke="#1B1A26" points="1128.559,105.801 1065.825,34.282 999.242,45.423 1007.3,54.154 	"/>
	<polygon fill="none" stroke="#1B1A26" points="1044.862,10.383 1065.825,34.282 1069.188,33.719 	"/>
	<polygon fill="none" stroke="#1B1A26" points="999.242,45.423 956.289,-1.122 899.898,8.411 990.31,46.918 	"/>
	<polygon fill="none" stroke="#1B1A26" points="1087.698,30.622 1079.858,22.346 1076.916,20.874 1087.17,30.71 	"/>
	<polygon fill="none" stroke="#1B1A26" points="877.713,22.479 912.006,36.437 888.951,10.262 870.808,13.33 871.632,15.574 	"/>
	<polygon fill="none" stroke="#1B1A26" points="1132.371,74.069 1096.611,30.728 1094.769,29.806 1127.345,69.247 	"/>
	<polygon fill="none" stroke="#1B1A26" points="1143,86.952 1143.328,84.581 1132.371,74.069 	"/>
	<polygon fill="none" stroke="#1B1A26" points="1145.674,67.675 1145.676,67.662 1127.604,46.235 1123.348,44.105 	"/>
	<polygon fill="none" stroke="#1B1A26" points="1113.213,33.405 1070.873,-1.32 1070.17,-1.32 1096.611,30.728 1123.348,44.105 	"/>
	<polygon fill="none" stroke="#1B1A26" points="1148.17,94.462 1156.131,102.867 1143,86.952 1142.852,88.023 	"/>
	<polygon fill="none" stroke="#1B1A26" points="1094.218,29.53 1084.973,24.905 1089.535,30.314 	"/>
	<polygon fill="none" stroke="#1B1A26" points="1195.577,151.864 1199.403,156.496 1199.566,155.512 1197.051,152.463 	"/>
	<polygon fill="none" stroke="#1B1A26" points="1198.838,159.917 1199.098,158.339 1190.768,150.348 	"/>
	<polygon fill="none" stroke="#1B1A26" points="1154.185,135.014 1185.117,170.278 1196.459,174.287 1198.429,162.381 
		1185.664,147.828 	"/>
	<polygon fill="none" stroke="#1B1A26" points="1188.986,137.553 1200.617,149.166 1200.88,147.575 1200.88,139.788 
		1194.908,134.06 1179.434,127.468 	"/>
	<polygon fill="none" stroke="#1B1A26" points="1195.794,182.45 1200.88,184.248 1200.88,175.85 1196.459,174.287 1195.216,181.791 
			"/>
	<polygon fill="none" stroke="#1B1A26" points="1178.48,127.062 1174.801,125.495 1197.051,152.463 1199.881,153.614 
		1200.522,149.732 1188.986,137.553 	"/>
	<polygon fill="none" stroke="#1B1A26" points="1115.269,286.859 1138.501,293.585 1130.67,284.694 1116.152,280.491 	"/>
	<polygon fill="none" stroke="#1B1A26" points="1181.93,262.05 1200.88,268.04 1200.88,263.924 1197.18,259.914 1183.024,255.44 	
		"/>
	<polygon fill="none" stroke="#1B1A26" points="1197.18,259.914 1200.88,261.083 1200.88,237.164 1186.79,232.694 1184.549,246.229 
			"/>
	<polygon fill="none" stroke="#1B1A26" points="1165.965,226.09 1186.79,232.694 1187.932,225.799 1156.497,215.83 	"/>
	<polygon fill="none" stroke="#1B1A26" points="1192.504,198.177 1200.88,196.841 1200.88,188.248 1195.794,182.45 
		1195.145,182.221 	"/>
	<polygon fill="none" stroke="#1B1A26" points="787.678,716.108 803.102,675.777 694.829,789.778 723.126,884.904 735.996,851.248 
		717.712,789.778 	"/>
	<polygon fill="none" stroke="#1B1A26" points="1146.851,42.228 1093.755,-1.32 1087.498,-1.32 1098.85,12.14 1148.075,50.367 
		1147.282,56.081 1178.798,71.85 1156.951,51.005 	"/>
	<polygon fill="none" stroke="#1B1A26" points="1102.108,-1.32 1112.139,8.25 1157.227,32.024 1118.052,-1.32 	"/>
	<polygon fill="none" stroke="#1B1A26" points="1121.387,-1.32 1163.649,35.41 1178.024,42.99 1127.918,-1.32 	"/>
	<polygon fill="none" stroke="#1B1A26" points="1185.61,-1.32 1200.88,8.283 1200.88,1.471 1196.74,-1.32 	"/>
	<polygon fill="none" stroke="#1B1A26" points="1143.233,-1.32 1200.88,45.078 1200.88,40.835 1145.515,-1.32 	"/>
	<polygon fill="none" stroke="#1B1A26" points="1143.328,84.581 1194.908,134.06 1200.88,136.603 1200.88,133.12 1145.788,67.796 
		1145.674,67.675 	"/>
	<polygon fill="none" stroke="#1B1A26" points="1093.989,-1.32 1100.994,2.373 1096.744,-1.32 	"/>
	<polygon fill="none" stroke="#1B1A26" points="1145.788,67.796 1200.88,125.956 1200.88,105.307 1146.626,60.81 1145.676,67.662 	
		"/>
	<polygon fill="none" stroke="#1B1A26" points="1146.626,60.81 1147.282,56.081 1130.812,47.84 	"/>
	<polygon fill="none" stroke="#1B1A26" points="1183.835,74.369 1189.493,77.2 1153.262,47.485 1156.951,51.005 	"/>
	<polygon fill="none" stroke="#1B1A26" points="1117.624,269.882 1130.67,284.694 1176.009,297.82 1181.93,262.05 1121.366,242.908 
			"/>
	<polygon fill="none" stroke="#1B1A26" points="1146.851,42.228 1153.262,47.485 1112.139,8.25 1100.994,2.373 	"/>
	<polygon fill="none" stroke="#1B1A26" points="1191.613,203.56 1192.504,198.177 1187.878,198.915 	"/>
	<polygon fill="none" stroke="#1B1A26" points="1122.797,699.277 1122.693,699.423 1102.433,757.273 1127.891,726.725 
		1129.44,717.363 	"/>
	<polygon fill="none" stroke="#1B1A26" points="950.67,756.64 899.943,897.25 916.974,897.25 930.98,874.667 992.435,704.312 	"/>
	<polygon fill="none" stroke="#1B1A26" points="1069.16,619.253 1065.606,612.632 1022.801,666.265 964.829,820.093 
		1063.229,661.443 1063.363,661.045 	"/>
	<polygon fill="none" stroke="#1B1A26" points="985.943,891.373 983.969,897.25 985.781,897.25 1019.62,856.646 1027.602,832.899 	
		"/>
	<polygon fill="none" stroke="#1B1A26" points="1042.406,812.119 1039.546,832.734 1099.336,760.988 1105.543,723.496 	"/>
	<polygon fill="none" stroke="#1B1A26" points="1063.33,661.28 1063.229,661.443 1006.383,830.563 1047.938,772.233 	"/>
	<polygon fill="none" stroke="#1B1A26" points="994.627,498.199 972.027,521.996 946.993,572.934 878.906,728.877 901.997,702.091 
		964.607,574.696 	"/>
	<polygon fill="none" stroke="#1B1A26" points="905.675,787.656 886.098,837.545 950.67,756.64 967.363,710.368 	"/>
	<polygon fill="none" stroke="#1B1A26" points="966.856,527.44 787.678,716.108 735.996,851.248 749.68,897.25 777.91,897.25 
		765.236,860.734 859.014,751.952 946.993,572.934 	"/>
	<polygon fill="none" stroke="#1B1A26" points="925.159,675.223 857.207,848.382 905.675,787.656 970.387,622.758 	"/>
	<polygon fill="none" stroke="#1B1A26" points="901.997,702.091 806.081,897.25 818.204,897.25 836.539,874.277 921.699,679.236 	
		"/>
	<polygon fill="none" stroke="#1B1A26" points="1100.76,890.622 1099.662,897.25 1147.488,897.25 1151.401,877.004 
		1160.472,798.482 	"/>
	<polygon fill="none" stroke="#1B1A26" points="1195.012,499.455 1200.215,454.411 1173.807,449.352 1166.235,495.092 	"/>
	<polygon fill="none" stroke="#1B1A26" points="1173.807,449.352 1174.585,444.648 1160.771,446.855 	"/>
	<polygon fill="none" stroke="#1B1A26" points="1178.176,384.927 1184.232,386.374 1185.102,381.117 1179.876,379.868 	"/>
	<polygon fill="none" stroke="#1B1A26" points="1149.303,662.071 1135.352,681.654 1129.44,717.363 1131.354,722.57 
		1127.891,726.725 1104.768,866.408 1169.72,658.22 	"/>
	<polygon fill="none" stroke="#1B1A26" points="1152.119,580.359 1186.316,574.732 1194.663,502.471 1165.74,498.084 	"/>
	<polygon fill="none" stroke="#1B1A26" points="1189.439,351.416 1186.933,358.873 1188.707,359.335 1190.334,349.514 
		1188.1,349.896 	"/>
	<polygon fill="none" stroke="#1B1A26" points="1196.799,310.462 1197.845,304.141 1176.009,297.82 1174.963,304.14 	"/>
	<polygon fill="none" stroke="#1B1A26" points="1188.951,574.299 1186.316,574.732 1185.867,578.63 	"/>
	<polygon fill="none" stroke="#1B1A26" points="1169.173,785.056 1194.596,653.526 1176.828,656.878 1160.472,798.482 	"/>
	<polygon fill="none" stroke="#1B1A26" points="1176.828,656.878 1180.761,622.831 1169.72,658.22 	"/>
	<polygon fill="none" stroke="#1B1A26" points="1180.761,622.831 1183.489,614.085 1181.438,616.964 	"/>
	<polygon fill="none" stroke="#1B1A26" points="1083.474,31.329 1072.258,18.542 1067.336,16.08 1082.73,31.453 	"/>
	<polygon fill="none" stroke="#1B1A26" points="1047.938,772.233 1047.9,772.507 1048.041,772.091 	"/>
	<polygon fill="none" stroke="#1B1A26" points="1167.437,351.416 1166.846,353.177 1166.785,353.542 1188.1,349.896 
		1170.665,330.102 1167.185,351.13 	"/>
	<polygon fill="none" stroke="#1B1A26" points="964.607,574.696 940.316,636.6 989.13,524.801 	"/>
	<polygon fill="none" stroke="#1B1A26" points="1134.817,664.806 1122.77,699.204 1122.797,699.277 1135.352,681.654 
		1138.248,664.157 	"/>
	<polygon fill="none" stroke="#1B1A26" points="994.928,497.435 994.627,498.199 995.104,497.697 	"/>
	<polygon fill="none" stroke="#1B1A26" points="1074.232,628.705 1063.363,661.045 1063.33,661.28 1078.548,636.744 	"/>
	<polygon fill="none" stroke="#1B1A26" points="1115.012,678.086 1112.469,681.654 1105.543,723.496 1122.693,699.423 
		1122.77,699.204 	"/>
	<polygon fill="none" stroke="#1B1A26" points="1151.628,445.103 1157.566,446.24 1178.176,384.927 1162.221,381.114 	"/>
	<polygon fill="none" stroke="#1B1A26" points="1085.049,596.525 1083.272,591.688 1082.18,591.867 1071.019,605.851 
		1069.16,619.253 1074.232,628.705 	"/>
	<polygon fill="none" stroke="#1B1A26" points="1072.744,593.42 1058.886,595.7 1057.471,597.474 1065.606,612.632 
		1071.019,605.851 	"/>
	<polygon fill="none" stroke="#1B1A26" points="1012.899,514.428 970.387,622.758 1019.537,565.743 1027.94,542.452 	"/>
	<polygon fill="none" stroke="#1B1A26" points="1032.42,550.8 1019.537,565.743 967.363,710.368 1009.126,658.045 1041.625,567.951 
			"/>
	<polygon fill="none" stroke="#1B1A26" points="1009.126,658.045 992.435,704.312 1022.801,666.265 1040.904,618.229 	"/>
	<polygon fill="none" stroke="#1B1A26" points="1157.971,496.906 1143.417,494.699 1139.148,520.489 	"/>
	<polygon fill="none" stroke="#1B1A26" points="1163.091,375.857 1179.876,379.868 1186.933,358.873 1166.771,353.628 	"/>
	<polygon fill="none" stroke="#1B1A26" points="1143.417,494.699 1145.493,482.158 1141.382,494.391 	"/>
	<polygon fill="none" stroke="#1B1A26" points="1113.666,674.424 1115.012,678.086 1142.277,639.812 1152.119,580.359 
		1128.597,584.229 	"/>
	<polygon fill="none" stroke="#1B1A26" points="924.825,350.329 907.557,366.923 916.514,380.303 932.611,364.835 	"/>
	<polygon fill="none" stroke="#1B1A26" points="916.514,380.303 905.269,391.109 909.572,397.538 926.153,394.702 	"/>
	<polygon fill="none" stroke="#1B1A26" points="951.518,432.591 940.508,443.752 963.658,478.334 980.354,475.667 	"/>
	<polygon fill="none" stroke="#1B1A26" points="1145.493,482.158 1157.166,447.431 1151.081,448.402 	"/>
	<polygon fill="none" stroke="#1B1A26" points="978.57,500.61 966.856,527.44 972.027,521.996 980.858,504.027 	"/>
	<polygon fill="none" stroke="#1B1A26" points="985.646,483.571 974.806,494.986 978.57,500.61 985.867,483.9 	"/>
	<polygon fill="none" stroke="#1B1A26" points="1149.303,662.071 1181.438,616.964 1185.867,578.63 1142.277,639.812 
		1138.248,664.157 	"/>
</g>
</svg>
