<svg class="background-icon c-svg-ever-green-bg state-fixed" xmlns="http://www.w3.org/2000/svg" viewBox="0 0 1363.5 1018.5" preserveAspectRatio="xMinYMin slice" data-t="ever-green-svg"><g stroke="none" fill="#000000" stroke-width="1px"><polygon class="ever-green-line" points="1056.219 196.887 1051.025 182.747 1045.069 183.666 1056.219 196.887" stroke="#1b1a26" fill="none" stroke-width="1px"></polygon><polygon class="ever-green-line" points="1125.618 537.402 1125.051 538.701 1126.216 538.515 1125.618 537.402" stroke="#1b1a26" fill="none" stroke-width="1px"></polygon><polygon class="ever-green-line" points="1141.948 536.002 1134.734 554.385 1137.087 558.77 1143.013 552.53 1150.85 534.581 1141.948 536.002" stroke="#1b1a26" fill="none" stroke-width="1px"></polygon><polygon class="ever-green-line" points="1201.635 592.73 1202.084 593.95 1203.164 590.957 1201.635 592.73" stroke="#1b1a26" fill="none" stroke-width="1px"></polygon><polygon class="ever-green-line" points="1116.28 455.929 1094.009 478.507 1125.618 537.402 1144.5 494.157 1116.28 455.929" stroke="#1b1a26" fill="none" stroke-width="1px"></polygon><polygon class="ever-green-line" points="1178.643 530.142 1188.965 558.238 1200.351 526.675 1178.643 530.142" stroke="#1b1a26" fill="none" stroke-width="1px"></polygon><polygon class="ever-green-line" points="1171.819 531.232 1178.643 530.142 1175.55 521.722 1171.819 531.232" stroke="#1b1a26" fill="none" stroke-width="1px"></polygon><polygon class="ever-green-line" points="1167.387 499.501 1165.128 501.88 1150.85 534.581 1161.705 532.847 1174.636 519.232 1167.387 499.501" stroke="#1b1a26" fill="none" stroke-width="1px"></polygon><polygon class="ever-green-line" points="968.174 244.051 989.341 283.49 1010.493 280.117 977.547 235.487 968.174 244.051" stroke="#1b1a26" fill="none" stroke-width="1px"></polygon><polygon class="ever-green-line" points="1010.493 280.117 1014.515 285.565 1022.594 278.187 1010.493 280.117" stroke="#1b1a26" fill="none" stroke-width="1px"></polygon><polygon class="ever-green-line" points="950.114 198.327 944.129 199.251 959.619 228.112 967.074 221.302 950.114 198.327" stroke="#1b1a26" fill="none" stroke-width="1px"></polygon><polygon class="ever-green-line" points="1014.515 285.565 1000.18 298.656 1010.247 312.293 1024.582 299.202 1014.515 285.565" stroke="#1b1a26" fill="none" stroke-width="1px"></polygon><polygon class="ever-green-line" points="1078.169 371.793 1064.13 385.284 1074.919 399.899 1088.959 386.409 1078.169 371.793" stroke="#1b1a26" fill="none" stroke-width="1px"></polygon><polygon class="ever-green-line" points="1125.538 435.96 1104.23 439.605 1116.28 455.929 1130.007 442.013 1125.538 435.96" stroke="#1b1a26" fill="none" stroke-width="1px"></polygon><polygon class="ever-green-line" points="1068.073 180.115 1103.441 222.049 1107.621 223.37 1114.048 217.5 1186.562 240.418 1153.106 202.434 1077.932 178.592 1068.073 180.115" stroke="#1b1a26" fill="none" stroke-width="1px"></polygon><polygon class="ever-green-line" points="1216.807 157.151 1230.79 154.992 1227.448 151.37 1090.493 102.966 1102.695 116.819 1216.807 157.151" stroke="#1b1a26" fill="none" stroke-width="1px"></polygon><polygon class="ever-green-line" points="1066.399 103.991 1125.622 171.229 1147.626 167.832 1102.695 116.819 1066.399 103.991" stroke="#1b1a26" fill="none" stroke-width="1px"></polygon><polygon class="ever-green-line" points="1153.106 202.434 1187.793 213.435 1177.715 201.992 1143.028 190.992 1153.106 202.434" stroke="#1b1a26" fill="none" stroke-width="1px"></polygon><polygon class="ever-green-line" points="1090.493 102.966 1056.838 64.757 1035.053 68.402 1054.199 90.139 1090.493 102.966" stroke="#1b1a26" fill="none" stroke-width="1px"></polygon><polygon class="ever-green-line" points="923.511 162.29 908.814 174.887 928.573 201.653 944.129 199.251 926.371 166.164 923.511 162.29" stroke="#1b1a26" fill="none" stroke-width="1px"></polygon><polygon class="ever-green-line" points="994.277 78.5 1013.387 85.254 1014.774 84.066 1010.527 72.507 981.425 77.376 987.367 84.422 994.277 78.5" stroke="#1b1a26" fill="none" stroke-width="1px"></polygon><polygon class="ever-green-line" points="1105.889 224.952 1135.589 260.167 1194.38 250.791 1107.621 223.37 1105.889 224.952" stroke="#1b1a26" fill="none" stroke-width="1px"></polygon><polygon class="ever-green-line" points="1259.105 384.475 1235.182 378.252 1256.467 403.49 1259.105 384.475" stroke="#1b1a26" fill="none" stroke-width="1px"></polygon><polygon class="ever-green-line" points="1266.5 415.386 1264.928 419.744 1268.345 420.561 1273.151 415.5 1317.492 426.096 1325.662 401.789 1325.522 401.753 1263.893 412.294 1266.5 415.386" stroke="#1b1a26" fill="none" stroke-width="1px"></polygon><polygon class="ever-green-line" points="1227.943 522.269 1203.164 590.957 1235.697 553.218 1240.263 520.301 1227.943 522.269" stroke="#1b1a26" fill="none" stroke-width="1px"></polygon><polygon class="ever-green-line" points="1262.36 426.862 1247.518 468.005 1240.263 520.301 1267.875 515.892 1281.143 500.5 1291.797 502.541 1315.56 431.843 1268.345 420.561 1262.36 426.862" stroke="#1b1a26" fill="none" stroke-width="1px"></polygon><polygon class="ever-green-line" points="1201.874 369.588 1235.182 378.252 1173.525 305.147 1159.164 318.947 1201.874 369.588" stroke="#1b1a26" fill="none" stroke-width="1px"></polygon><polygon class="ever-green-line" points="1147.525 305.147 1158.606 294.5 1166.464 296.775 1135.589 260.167 1112.672 263.822 1147.525 305.147" stroke="#1b1a26" fill="none" stroke-width="1px"></polygon><polygon class="ever-green-line" points="913.051 148.12 875.298 96.98 860.051 108.831 898.354 160.717 913.051 148.12" stroke="#1b1a26" fill="none" stroke-width="1px"></polygon><polygon class="ever-green-line" points="1142.951 432.982 1138.097 433.812 1130.007 442.013 1161.885 485.196 1162.013 484.871 1142.951 432.982" stroke="#1b1a26" fill="none" stroke-width="1px"></polygon><polygon class="ever-green-line" points="1141.856 430.001 1124.558 382.913 1110.68 365.536 1088.959 386.409 1125.538 435.96 1138.097 433.812 1141.856 430.001" stroke="#1b1a26" fill="none" stroke-width="1px"></polygon><polygon class="ever-green-line" points="1043.736 281.711 1024.582 299.202 1078.169 371.793 1099.391 351.4 1043.736 281.711" stroke="#1b1a26" fill="none" stroke-width="1px"></polygon><polygon class="ever-green-line" points="1038.851 275.594 1043.736 281.711 1052.884 273.356 1038.851 275.594" stroke="#1b1a26" fill="none" stroke-width="1px"></polygon><polygon class="ever-green-line" points="1162.377 485.862 1161.885 485.196 1148.445 519.446 1165.128 501.88 1166.829 497.983 1162.377 485.862" stroke="#1b1a26" fill="none" stroke-width="1px"></polygon><polygon class="ever-green-line" points="1196.16 469.206 1177.86 515.837 1220.434 471.009 1236.35 426.888 1196.16 469.206" stroke="#1b1a26" fill="none" stroke-width="1px"></polygon><polygon class="ever-green-line" points="1204.5 447.953 1186.583 425.518 1161.948 429.732 1176.5 447.953 1162.013 484.871 1162.377 485.862 1168.5 494.157 1166.829 497.983 1167.387 499.501 1196.16 469.206 1204.5 447.953" stroke="#1b1a26" fill="none" stroke-width="1px"></polygon><polygon class="ever-green-line" points="1000.786 190.503 1029.054 164.678 983.601 110.785 954.885 135.399 999.101 190.764 1000.786 190.503" stroke="#1b1a26" fill="none" stroke-width="1px"></polygon><polygon class="ever-green-line" points="1049.644 169.621 1055.054 164.678 1036.155 142.27 1045.749 168.386 1049.644 169.621" stroke="#1b1a26" fill="none" stroke-width="1px"></polygon><polygon class="ever-green-line" points="1030.344 163.5 1029.054 164.678 1040.369 178.094 1047.068 171.975 1045.749 168.386 1030.344 163.5" stroke="#1b1a26" fill="none" stroke-width="1px"></polygon><polygon class="ever-green-line" points="1010.659 205.237 994.472 220.025 1033.192 268.509 1049.382 253.724 1010.659 205.237" stroke="#1b1a26" fill="none" stroke-width="1px"></polygon><polygon class="ever-green-line" points="1220.434 471.009 1200.351 526.675 1227.943 522.269 1247.518 468.005 1251.663 438.126 1220.434 471.009" stroke="#1b1a26" fill="none" stroke-width="1px"></polygon><polygon class="ever-green-line" points="967.074 221.302 977.547 235.487 994.472 220.025 983.504 206.292 967.074 221.302" stroke="#1b1a26" fill="none" stroke-width="1px"></polygon><polygon class="ever-green-line" points="938.265 149.644 924.046 161.832 926.371 166.164 950.114 198.327 974.177 194.612 938.265 149.644" stroke="#1b1a26" fill="none" stroke-width="1px"></polygon><polygon class="ever-green-line" points="954.885 135.399 943.916 121.665 927.296 135.91 938.265 149.644 954.885 135.399" stroke="#1b1a26" fill="none" stroke-width="1px"></polygon><polygon class="ever-green-line" points="998.692 97.85 987.367 84.422 972.276 97.357 983.601 110.785 998.692 97.85" stroke="#1b1a26" fill="none" stroke-width="1px"></polygon><polygon class="ever-green-line" points="1036.155 142.27 1015.482 85.995 1013.387 85.254 998.692 97.85 1036.155 142.27" stroke="#1b1a26" fill="none" stroke-width="1px"></polygon><polygon class="ever-green-line" points="1066.399 103.991 1054.199 90.139 1021.267 78.5 1014.774 84.066 1015.482 85.995 1066.399 103.991" stroke="#1b1a26" fill="none" stroke-width="1px"></polygon><polygon class="ever-green-line" points="972.276 97.357 958.64 81.189 917.138 88.134 943.916 121.665 972.276 97.357" stroke="#1b1a26" fill="none" stroke-width="1px"></polygon><polygon class="ever-green-line" points="1055.054 164.678 1062.721 173.768 1077.932 178.592 1095.419 175.893 1056.344 163.5 1055.054 164.678" stroke="#1b1a26" fill="none" stroke-width="1px"></polygon><polygon class="ever-green-line" points="873.793 181.769 883.634 196.47 908.814 174.887 898.354 160.717 873.793 181.769" stroke="#1b1a26" fill="none" stroke-width="1px"></polygon><polygon class="ever-green-line" points="924.046 161.832 915.541 145.986 913.051 148.12 923.511 162.29 924.046 161.832" stroke="#1b1a26" fill="none" stroke-width="1px"></polygon><polygon class="ever-green-line" points="1247.166 415.5 1254.556 417.266 1255.036 413.809 1240.15 416.356 1236.35 426.888 1247.166 415.5" stroke="#1b1a26" fill="none" stroke-width="1px"></polygon><polygon class="ever-green-line" points="1126.522 350.314 1159.164 318.947 1147.525 305.147 1115.233 336.178 1126.522 350.314" stroke="#1b1a26" fill="none" stroke-width="1px"></polygon><polygon class="ever-green-line" points="1168.551 402.939 1186.583 425.518 1240.15 416.356 1240.5 415.386 1201.874 369.588 1201.536 369.5 1168.551 402.939" stroke="#1b1a26" fill="none" stroke-width="1px"></polygon><polygon class="ever-green-line" points="1251.663 438.126 1262.36 426.862 1264.928 419.744 1254.556 417.266 1251.663 438.126" stroke="#1b1a26" fill="none" stroke-width="1px"></polygon><polygon class="ever-green-line" points="1082.572 268.622 1112.672 263.822 1091.201 238.365 1076.416 251.866 1082.572 268.622" stroke="#1b1a26" fill="none" stroke-width="1px"></polygon><polygon class="ever-green-line" points="1080.324 225.467 1091.201 238.365 1105.889 224.952 1103.441 222.049 1089.048 217.5 1080.324 225.467" stroke="#1b1a26" fill="none" stroke-width="1px"></polygon><polygon class="ever-green-line" points="1049.644 169.621 1047.068 171.975 1051.025 182.747 1068.073 180.115 1062.721 173.768 1049.644 169.621" stroke="#1b1a26" fill="none" stroke-width="1px"></polygon><polygon class="ever-green-line" points="1126.216 538.515 1127.703 541.285 1131.071 537.74 1126.216 538.515" stroke="#1b1a26" fill="none" stroke-width="1px"></polygon><polygon class="ever-green-line" points="1144.544 61.533 1125.239 53.311 1082.922 60.392 1179.93 99.879 1144.544 61.533" stroke="#1b1a26" fill="none" stroke-width="1px"></polygon><polygon class="ever-green-line" points="1082.922 60.392 1036.266 41.401 1056.838 64.757 1082.922 60.392" stroke="#1b1a26" fill="none" stroke-width="1px"></polygon><polygon class="ever-green-line" points="1230.79 154.992 1240.515 165.531 1287.188 182.027 1288.45 172.93 1235.596 154.25 1230.79 154.992" stroke="#1b1a26" fill="none" stroke-width="1px"></polygon><polygon class="ever-green-line" points="1227.448 151.37 1235.596 154.25 1285.793 146.5 1291.186 153.208 1292.242 145.595 1179.93 99.879 1227.448 151.37" stroke="#1b1a26" fill="none" stroke-width="1px"></polygon><polygon class="ever-green-line" points="933.682 51.597 913.736 27.947 899.059 30.428 881.575 43.604 905.471 73.526 933.682 51.597" stroke="#1b1a26" fill="none" stroke-width="1px"></polygon><polygon class="ever-green-line" points="1035.053 68.402 997.301 25.541 992.566 23.613 1010.527 72.507 1035.053 68.402" stroke="#1b1a26" fill="none" stroke-width="1px"></polygon><polygon class="ever-green-line" points="866.635 54.863 864.098 56.775 874.962 70.379 866.635 54.863" stroke="#1b1a26" fill="none" stroke-width="1px"></polygon><polygon class="ever-green-line" points="981.425 77.376 949.387 39.39 933.682 51.597 958.64 81.189 981.425 77.376" stroke="#1b1a26" fill="none" stroke-width="1px"></polygon><polygon class="ever-green-line" points="1194.38 250.791 1196.207 251.369 1195.536 250.607 1194.38 250.791" stroke="#1b1a26" fill="none" stroke-width="1px"></polygon><polygon class="ever-green-line" points="1216.807 157.151 1147.626 167.832 1177.715 201.992 1279.922 234.407 1283.079 211.653 1240.515 165.531 1216.807 157.151" stroke="#1b1a26" fill="none" stroke-width="1px"></polygon><polygon class="ever-green-line" points="1266.499 331.174 1267.224 325.944 1260.067 323.872 1266.499 331.174" stroke="#1b1a26" fill="none" stroke-width="1px"></polygon><polygon class="ever-green-line" points="1178.586 300.284 1260.067 323.872 1251.169 313.77 1184.606 294.5 1178.586 300.284" stroke="#1b1a26" fill="none" stroke-width="1px"></polygon><polygon class="ever-green-line" points="1221.204 251.367 1217.455 247.111 1210.997 248.141 1221.204 251.367" stroke="#1b1a26" fill="none" stroke-width="1px"></polygon><polygon class="ever-green-line" points="1217.455 247.111 1268.375 238.991 1187.793 213.435 1217.455 247.111" stroke="#1b1a26" fill="none" stroke-width="1px"></polygon><polygon class="ever-green-line" points="766.49 52.84 785.348 49.651 779.318 40.645 764.764 50.261 766.49 52.84" stroke="#1b1a26" fill="none" stroke-width="1px"></polygon><polygon class="ever-green-line" points="701.573 329.382 592.687 422.71 579.516 457.139 734.739 324.093 701.573 329.382" stroke="#1b1a26" fill="none" stroke-width="1px"></polygon><polygon class="ever-green-line" points="870.294 207.904 860.453 193.203 833.462 216.337 866.386 211.254 870.294 207.904" stroke="#1b1a26" fill="none" stroke-width="1px"></polygon><polygon class="ever-green-line" points="802.913 107.248 795.471 108.493 605.708 251.501 694.056 237.861 823.166 137.502 802.913 107.248" stroke="#1b1a26" fill="none" stroke-width="1px"></polygon><polygon class="ever-green-line" points="864.098 56.775 849.718 38.769 834.256 41.383 852.224 65.723 864.098 56.775" stroke="#1b1a26" fill="none" stroke-width="1px"></polygon><polygon class="ever-green-line" points="912.587 271.08 922.453 285.819 935.481 273.917 925.615 259.179 912.587 271.08" stroke="#1b1a26" fill="none" stroke-width="1px"></polygon><polygon class="ever-green-line" points="963.215 248.581 935.481 273.917 946.467 290.327 989.023 283.541 963.215 248.581" stroke="#1b1a26" fill="none" stroke-width="1px"></polygon><polygon class="ever-green-line" points="866.386 211.254 734.739 324.093 879.899 300.943 912.587 271.08 871.961 210.393 866.386 211.254" stroke="#1b1a26" fill="none" stroke-width="1px"></polygon><polygon class="ever-green-line" points="766.49 52.84 758.925 54.118 636.321 135.125 795.471 108.493 800.971 104.348 766.49 52.84" stroke="#1b1a26" fill="none" stroke-width="1px"></polygon><polygon class="ever-green-line" points="764.764 50.261 738.375 10.841 636.468 74.821 758.925 54.118 764.764 50.261" stroke="#1b1a26" fill="none" stroke-width="1px"></polygon><polygon class="ever-green-line" points="836.806 77.342 812.924 44.99 785.348 49.651 814.925 93.833 836.806 77.342" stroke="#1b1a26" fill="none" stroke-width="1px"></polygon><polygon class="ever-green-line" points="1325.522 401.753 1325.684 401.725 1325.828 401.297 1326.213 398.971 1266.499 331.174 1259.105 384.475 1325.522 401.753" stroke="#1b1a26" fill="none" stroke-width="1px"></polygon><polygon class="ever-green-line" points="340.843 260.423 306.084 353.317 636.321 135.125 505.565 157.006 340.843 260.423" stroke="#1b1a26" fill="none" stroke-width="1px"></polygon><polygon class="ever-green-line" points="505.565 157.006 636.468 74.821 345.812 123.958 293.34 151.633 226.152 332.429 340.843 260.423 371.121 179.503 505.565 157.006" stroke="#1b1a26" fill="none" stroke-width="1px"></polygon><polygon class="ever-green-line" points="1010.247 312.293 1006.592 315.631 1050.833 398.061 1064.13 385.284 1010.247 312.293" stroke="#1b1a26" fill="none" stroke-width="1px"></polygon><polygon class="ever-green-line" points="989.023 283.541 990.289 285.256 989.341 283.49 989.023 283.541" stroke="#1b1a26" fill="none" stroke-width="1px"></polygon><polygon class="ever-green-line" points="990.289 285.256 998.369 300.31 1000.18 298.656 990.289 285.256" stroke="#1b1a26" fill="none" stroke-width="1px"></polygon><polygon class="ever-green-line" points="890.989 207.455 925.615 259.179 952.743 234.395 928.573 201.653 890.989 207.455" stroke="#1b1a26" fill="none" stroke-width="1px"></polygon><polygon class="ever-green-line" points="959.619 228.112 952.743 234.395 963.215 248.581 968.174 244.051 959.619 228.112" stroke="#1b1a26" fill="none" stroke-width="1px"></polygon><polygon class="ever-green-line" points="1125.051 538.701 1113.928 540.477 1119.941 549.458 1120.706 548.652 1125.051 538.701" stroke="#1b1a26" fill="none" stroke-width="1px"></polygon><polygon class="ever-green-line" points="917.138 88.134 905.471 73.526 888.198 86.952 892.442 92.267 917.138 88.134" stroke="#1b1a26" fill="none" stroke-width="1px"></polygon><polygon class="ever-green-line" points="1074.919 399.899 1059.679 414.544 1075.745 444.477 1104.23 439.605 1074.919 399.899" stroke="#1b1a26" fill="none" stroke-width="1px"></polygon><polygon class="ever-green-line" points="1075.745 444.477 1052.342 448.48 1081.162 491.531 1094.009 478.507 1075.745 444.477" stroke="#1b1a26" fill="none" stroke-width="1px"></polygon><polygon class="ever-green-line" points="874.086 95.338 852.224 65.723 836.806 77.342 852.729 98.912 874.086 95.338" stroke="#1b1a26" fill="none" stroke-width="1px"></polygon><polygon class="ever-green-line" points="878.322 94.629 874.086 95.338 875.298 96.98 878.322 94.629" stroke="#1b1a26" fill="none" stroke-width="1px"></polygon><polygon class="ever-green-line" points="870.294 207.904 871.961 210.393 890.989 207.455 883.634 196.47 870.294 207.904" stroke="#1b1a26" fill="none" stroke-width="1px"></polygon><polygon class="ever-green-line" points="885.135 89.333 878.322 94.629 887.182 93.147 885.135 89.333" stroke="#1b1a26" fill="none" stroke-width="1px"></polygon><polygon class="ever-green-line" points="836.974 126.769 823.166 137.502 860.453 193.203 873.793 181.769 836.974 126.769" stroke="#1b1a26" fill="none" stroke-width="1px"></polygon><polygon class="ever-green-line" points="814.925 93.833 800.971 104.348 802.913 107.248 821.791 104.089 814.925 93.833" stroke="#1b1a26" fill="none" stroke-width="1px"></polygon><polygon class="ever-green-line" points="1234.961 671.631 1232.887 677.802 1245.943 713.34 1261.426 667.277 1234.961 671.631" stroke="#1b1a26" fill="none" stroke-width="1px"></polygon><polygon class="ever-green-line" points="1325.662 401.789 1325.743 401.81 1325.759 401.712 1325.684 401.725 1325.662 401.789" stroke="#1b1a26" fill="none" stroke-width="1px"></polygon><polygon class="ever-green-line" points="1281.522 607.487 1296.895 561.751 1295.237 561.5 1255.059 611.838 1238.333 661.601 1281.522 607.487" stroke="#1b1a26" fill="none" stroke-width="1px"></polygon><polygon class="ever-green-line" points="1282.368 663.831 1294.357 591.406 1281.522 607.487 1261.426 667.277 1282.368 663.831" stroke="#1b1a26" fill="none" stroke-width="1px"></polygon><polygon class="ever-green-line" points="1235.697 553.218 1222.382 649.205 1223.281 651.653 1255.059 611.838 1288.412 512.612 1267.875 515.892 1235.697 553.218" stroke="#1b1a26" fill="none" stroke-width="1px"></polygon><polygon class="ever-green-line" points="1288.412 512.612 1307.916 509.497 1308.537 505.748 1291.797 502.541 1288.412 512.612" stroke="#1b1a26" fill="none" stroke-width="1px"></polygon><polygon class="ever-green-line" points="1127.703 541.285 1120.706 548.652 1120.191 549.832 1130.486 565.21 1134.734 554.385 1127.703 541.285" stroke="#1b1a26" fill="none" stroke-width="1px"></polygon><polygon class="ever-green-line" points="1315.56 431.843 1320.573 433.041 1321.562 427.068 1317.492 426.096 1315.56 431.843" stroke="#1b1a26" fill="none" stroke-width="1px"></polygon><polygon class="ever-green-line" points="1161.705 532.847 1143.013 552.53 1138.852 562.059 1150.907 584.519 1171.819 531.232 1161.705 532.847" stroke="#1b1a26" fill="none" stroke-width="1px"></polygon><polygon class="ever-green-line" points="1130.686 565.509 1134.716 571.53 1138.852 562.059 1137.087 558.77 1130.686 565.509" stroke="#1b1a26" fill="none" stroke-width="1px"></polygon><polygon class="ever-green-line" points="1188.965 558.238 1167.997 616.361 1173.087 625.846 1201.635 592.73 1188.965 558.238" stroke="#1b1a26" fill="none" stroke-width="1px"></polygon><polygon class="ever-green-line" points="1223.281 651.653 1221.782 653.531 1218.905 674.273 1229.627 672.509 1230.528 671.38 1223.281 651.653" stroke="#1b1a26" fill="none" stroke-width="1px"></polygon><polygon class="ever-green-line" points="1222.382 649.205 1202.084 593.95 1183.547 645.335 1200.688 677.271 1203.159 676.864 1221.782 653.531 1222.382 649.205" stroke="#1b1a26" fill="none" stroke-width="1px"></polygon><polygon class="ever-green-line" points="1238.333 661.601 1230.528 671.38 1230.868 672.305 1234.961 671.631 1238.333 661.601" stroke="#1b1a26" fill="none" stroke-width="1px"></polygon><polygon class="ever-green-line" points="228.942 1019.5 224.231 894.926 175.838 1019.5 228.942 1019.5" stroke="#1b1a26" fill="none" stroke-width="1px"></polygon><polygon class="ever-green-line" points="825.824 1019.5 821.652 1005.472 816.287 1019.5 825.824 1019.5" stroke="#1b1a26" fill="none" stroke-width="1px"></polygon><polygon class="ever-green-line" points="894.917 1019.5 915.126 1019.5 998.657 828.186 976.054 854.406 894.917 1019.5" stroke="#1b1a26" fill="none" stroke-width="1px"></polygon><polygon class="ever-green-line" points="939.12 1019.5 952.212 1019.5 974.002 963.974 950.517 993.398 939.12 1019.5" stroke="#1b1a26" fill="none" stroke-width="1px"></polygon><polygon class="ever-green-line" points="695.288 1019.5 678.275 950.526 652.778 1019.5 695.288 1019.5" stroke="#1b1a26" fill="none" stroke-width="1px"></polygon><polygon class="ever-green-line" points="524.669 1019.5 550.669 1019.5 482.66 710.319 466.152 753.471 524.669 1019.5" stroke="#1b1a26" fill="none" stroke-width="1px"></polygon><polygon class="ever-green-line" points="447.315 1019.5 474.308 1019.5 438.324 826.213 420.166 873.679 447.315 1019.5" stroke="#1b1a26" fill="none" stroke-width="1px"></polygon><polygon class="ever-green-line" points="532.5 725.749 597.382 1019.5 622.382 1019.5 557.5 725.749 966.76 352.006 957.276 337.837 532.5 725.749" stroke="#1b1a26" fill="none" stroke-width="1px"></polygon><polygon class="ever-green-line" points="851.139 482.896 789.766 648.923 986.672 459.713 851.139 482.896" stroke="#1b1a26" fill="none" stroke-width="1px"></polygon><polygon class="ever-green-line" points="1143.035 1019.5 1171.016 1019.5 1181.184 946.194 1158.543 973.363 1143.035 1019.5" stroke="#1b1a26" fill="none" stroke-width="1px"></polygon><polygon class="ever-green-line" points="1247.293 875.716 1252.639 860.452 1249.121 864.673 1247.293 875.716" stroke="#1b1a26" fill="none" stroke-width="1px"></polygon><polygon class="ever-green-line" points="980.205 1019.5 1006.828 951.66 952.683 1019.5 980.205 1019.5" stroke="#1b1a26" fill="none" stroke-width="1px"></polygon><polygon class="ever-green-line" points="1223.491 1019.5 1247.293 875.716 1196.936 1019.5 1223.491 1019.5" stroke="#1b1a26" fill="none" stroke-width="1px"></polygon><polygon class="ever-green-line" points="1048.57 1019.5 1063.248 1019.5 1096.287 931.83 1057.826 993.84 1048.57 1019.5" stroke="#1b1a26" fill="none" stroke-width="1px"></polygon><polygon class="ever-green-line" points="1089.521 1019.5 1115.521 1019.5 1120.278 1012.823 1143.503 943.728 1089.521 1019.5" stroke="#1b1a26" fill="none" stroke-width="1px"></polygon><polygon class="ever-green-line" points="71.834 1019.5 121.713 1019.5 129.063 826.422 61.5 1006.988 71.834 1019.5" stroke="#1b1a26" fill="none" stroke-width="1px"></polygon><polygon class="ever-green-line" points="836.384 -1.5 838.143 1.778 843.105 -1.5 836.384 -1.5" stroke="#1b1a26" fill="none" stroke-width="1px"></polygon><polygon class="ever-green-line" points="730.114 -1.5 731.061 -0.084 738.958 -1.5 730.114 -1.5" stroke="#1b1a26" fill="none" stroke-width="1px"></polygon><polygon class="ever-green-line" points="758.031 -1.5 751.105 -1.5 752.804 1.039 754.459 0.742 758.031 -1.5" stroke="#1b1a26" fill="none" stroke-width="1px"></polygon><polygon class="ever-green-line" points="817.558 -1.5 802.599 -1.5 815.878 16.489 826.382 9.549 817.558 -1.5" stroke="#1b1a26" fill="none" stroke-width="1px"></polygon><polygon class="ever-green-line" points="996.548 -1.5 999.639 -0.183 998.479 -1.5 996.548 -1.5" stroke="#1b1a26" fill="none" stroke-width="1px"></polygon><polygon class="ever-green-line" points="914.901 -1.5 925.208 10.721 941.425 -1.5 914.901 -1.5" stroke="#1b1a26" fill="none" stroke-width="1px"></polygon><polygon class="ever-green-line" points="583.685 -1.5 451.762 -1.5 284.91 79.909 503.713 40.679 583.685 -1.5" stroke="#1b1a26" fill="none" stroke-width="1px"></polygon><polygon class="ever-green-line" points="998.369 300.31 970.306 325.938 979.791 340.106 1006.592 315.631 998.369 300.31" stroke="#1b1a26" fill="none" stroke-width="1px"></polygon><polygon class="ever-green-line" points="1244.359 1019.5 1245.857 1019.5 1250.738 1011.969 1255.292 984.456 1244.359 1019.5" stroke="#1b1a26" fill="none" stroke-width="1px"></polygon><polygon class="ever-green-line" points="275.787 1019.5 337.689 1019.5 299.033 702.373 262.417 796.63 275.787 1019.5" stroke="#1b1a26" fill="none" stroke-width="1px"></polygon><polygon class="ever-green-line" points="-1.5 711.237 -1.5 788.889 70.25 589.94 76.96 493.671 -1.5 711.237" stroke="#1b1a26" fill="none" stroke-width="1px"></polygon><polygon class="ever-green-line" points="377.201 1019.5 373.803 994.87 364.381 1019.5 377.201 1019.5" stroke="#1b1a26" fill="none" stroke-width="1px"></polygon><polygon class="ever-green-line" points="-1.5 1007.469 8.426 1019.5 40.309 1019.5 56.35 789.351 -1.5 945.021 -1.5 1007.469" stroke="#1b1a26" fill="none" stroke-width="1px"></polygon><polygon class="ever-green-line" points="983.34 -1.5 973.485 -1.5 988.315 15.338 989.455 15.146 983.34 -1.5" stroke="#1b1a26" fill="none" stroke-width="1px"></polygon><polygon class="ever-green-line" points="1364.5 105.578 1364.5 101.335 1345.132 84.502 1339.409 81.639 1364.5 105.578" stroke="#1b1a26" fill="none" stroke-width="1px"></polygon><polygon class="ever-green-line" points="1364.5 94.193 1351.562 87.719 1364.5 98.331 1364.5 94.193" stroke="#1b1a26" fill="none" stroke-width="1px"></polygon><polygon class="ever-green-line" points="1364.5 187.679 1364.5 184.457 1362.179 181.705 1361.715 184.505 1364.5 187.679" stroke="#1b1a26" fill="none" stroke-width="1px"></polygon><polygon class="ever-green-line" points="1364.5 178.51 1364.5 175.007 1363.364 174.544 1363.007 176.7 1364.5 178.51" stroke="#1b1a26" fill="none" stroke-width="1px"></polygon><polygon class="ever-green-line" points="1364.5 181.855 1364.5 179.849 1362.822 177.818 1362.475 179.913 1364.5 181.855" stroke="#1b1a26" fill="none" stroke-width="1px"></polygon><polygon class="ever-green-line" points="1364.5 71.813 1364.5 62.541 1338.53 48.847 1364.5 71.813" stroke="#1b1a26" fill="none" stroke-width="1px"></polygon><polygon class="ever-green-line" points="1364.5 78.605 1364.5 77 1322.197 40.235 1314.899 36.387 1364.5 78.605" stroke="#1b1a26" fill="none" stroke-width="1px"></polygon><polygon class="ever-green-line" points="46.177 11.262 44.349 16.638 70.843 6.368 46.177 11.262" stroke="#1b1a26" fill="none" stroke-width="1px"></polygon><polygon class="ever-green-line" points="-1.5 34.409 -1.5 74.423 29.045 61.635 44.349 16.638 -1.5 34.409" stroke="#1b1a26" fill="none" stroke-width="1px"></polygon><polygon class="ever-green-line" points="1348.917 1019.5 1364.5 992.552 1364.5 948.289 1347 1019.5 1348.917 1019.5" stroke="#1b1a26" fill="none" stroke-width="1px"></polygon><polygon class="ever-green-line" points="91.142 -1.5 70.843 6.368 110.496 -1.5 91.142 -1.5" stroke="#1b1a26" fill="none" stroke-width="1px"></polygon><polygon class="ever-green-line" points="133.484 -1.5 69.164 11.262 55.849 50.414 179.858 -1.5 133.484 -1.5" stroke="#1b1a26" fill="none" stroke-width="1px"></polygon><polygon class="ever-green-line" points="29.045 61.635 -1.5 151.445 -1.5 219.041 55.849 50.414 29.045 61.635" stroke="#1b1a26" fill="none" stroke-width="1px"></polygon><polygon class="ever-green-line" points="1364.5 437.328 1364.5 411.892 1350.669 408.294 1346.572 433.044 1364.5 437.328" stroke="#1b1a26" fill="none" stroke-width="1px"></polygon><polygon class="ever-green-line" points="1364.5 705.625 1357.359 742.569 1364.5 741.222 1364.5 705.625" stroke="#1b1a26" fill="none" stroke-width="1px"></polygon><polygon class="ever-green-line" points="1364.5 670.018 1364.5 650.317 1359.271 651.177 1344.74 697.754 1364.5 670.018" stroke="#1b1a26" fill="none" stroke-width="1px"></polygon><polygon class="ever-green-line" points="1364.5 634.418 1360.573 647.006 1364.5 647.38 1364.5 634.418" stroke="#1b1a26" fill="none" stroke-width="1px"></polygon><polygon class="ever-green-line" points="1360.573 647.006 1355.254 646.5 1350.946 652.547 1359.271 651.177 1360.573 647.006" stroke="#1b1a26" fill="none" stroke-width="1px"></polygon><polygon class="ever-green-line" points="1364.5 261.231 1364.5 244.392 1353.97 231.295 1349.787 256.564 1364.5 261.231" stroke="#1b1a26" fill="none" stroke-width="1px"></polygon><polygon class="ever-green-line" points="1323.008 1019.5 1331.834 1019.5 1336.817 993.717 1323.821 1016.193 1323.008 1019.5" stroke="#1b1a26" fill="none" stroke-width="1px"></polygon><polygon class="ever-green-line" points="1364.5 945.841 1364.5 850.657 1364.35 851.27 1336.817 993.717 1364.5 945.841" stroke="#1b1a26" fill="none" stroke-width="1px"></polygon><polygon class="ever-green-line" points="1364.5 395.085 1364.5 354.104 1359.862 352.762 1352.517 397.135 1364.5 395.085" stroke="#1b1a26" fill="none" stroke-width="1px"></polygon><polygon class="ever-green-line" points="1364.5 324.745 1361.051 345.58 1364.5 346.579 1364.5 324.745" stroke="#1b1a26" fill="none" stroke-width="1px"></polygon><polygon class="ever-green-line" points="1305.623 1019.5 1321.909 1019.5 1323.821 1016.193 1364.35 851.27 1364.5 850.491 1364.5 836.428 1328.473 892.019 1308.28 996.496 1305.623 1019.5" stroke="#1b1a26" fill="none" stroke-width="1px"></polygon><polygon class="ever-green-line" points="1364.5 572.003 1364.5 568.517 1357.832 567.506 1357.436 570.932 1364.5 572.003" stroke="#1b1a26" fill="none" stroke-width="1px"></polygon><polygon class="ever-green-line" points="1364.5 500.461 1364.5 443.538 1345.584 439.018 1334.622 505.232 1364.5 500.461" stroke="#1b1a26" fill="none" stroke-width="1px"></polygon><polygon class="ever-green-line" points="1364.5 509.778 1363.744 516.325 1364.5 516.47 1364.5 509.778" stroke="#1b1a26" fill="none" stroke-width="1px"></polygon><polygon class="ever-green-line" points="1296.289 116.422 1295.013 125.62 1314.553 133.942 1296.289 116.422" stroke="#1b1a26" fill="none" stroke-width="1px"></polygon><polygon class="ever-green-line" points="1178.586 300.284 1166.464 296.775 1173.525 305.147 1178.586 300.284" stroke="#1b1a26" fill="none" stroke-width="1px"></polygon><polygon class="ever-green-line" points="1210.997 248.141 1186.562 240.418 1195.536 250.607 1210.997 248.141" stroke="#1b1a26" fill="none" stroke-width="1px"></polygon><polygon class="ever-green-line" points="874.962 70.379 885.135 89.333 888.198 86.952 874.962 70.379" stroke="#1b1a26" fill="none" stroke-width="1px"></polygon><polygon class="ever-green-line" points="852.729 98.912 821.791 104.089 836.974 126.769 860.051 108.831 852.729 98.912" stroke="#1b1a26" fill="none" stroke-width="1px"></polygon><polygon class="ever-green-line" points="1143.028 190.992 1125.622 171.229 1095.419 175.893 1143.028 190.992" stroke="#1b1a26" fill="none" stroke-width="1px"></polygon><polygon class="ever-green-line" points="1135.5 572.701 1134.716 571.53 1123.899 596.305 1135.5 572.701" stroke="#1b1a26" fill="none" stroke-width="1px"></polygon><polygon class="ever-green-line" points="892.442 92.267 887.182 93.147 915.541 145.986 927.296 135.91 892.442 92.267" stroke="#1b1a26" fill="none" stroke-width="1px"></polygon><polygon class="ever-green-line" points="1278.827 242.306 1279.533 237.211 1268.375 238.991 1278.827 242.306" stroke="#1b1a26" fill="none" stroke-width="1px"></polygon><polygon class="ever-green-line" points="1000.786 190.503 999.691 191.503 1010.659 205.237 1032.074 185.673 1000.786 190.503" stroke="#1b1a26" fill="none" stroke-width="1px"></polygon><polygon class="ever-green-line" points="1314.424 182.11 1291.186 153.208 1288.45 172.93 1314.424 182.11" stroke="#1b1a26" fill="none" stroke-width="1px"></polygon><polygon class="ever-green-line" points="1295.013 125.62 1282.325 120.216 1293.928 133.443 1295.013 125.62" stroke="#1b1a26" fill="none" stroke-width="1px"></polygon><polygon class="ever-green-line" points="1191.661 678.756 1182.727 702.463 1201.551 678.879 1200.688 677.271 1191.661 678.756" stroke="#1b1a26" fill="none" stroke-width="1px"></polygon><polygon class="ever-green-line" points="1190.836 877.288 1264.043 774.53 1265.403 766.314 1245.943 713.34 1190.836 877.288" stroke="#1b1a26" fill="none" stroke-width="1px"></polygon><polygon class="ever-green-line" points="1256.467 403.49 1255.036 413.809 1263.893 412.294 1256.467 403.49" stroke="#1b1a26" fill="none" stroke-width="1px"></polygon><polygon class="ever-green-line" points="1285.676 236.232 1279.922 234.407 1279.533 237.211 1285.676 236.232" stroke="#1b1a26" fill="none" stroke-width="1px"></polygon><polygon class="ever-green-line" points="1115.233 336.178 1100.708 317.99 1109.435 341.748 1115.233 336.178" stroke="#1b1a26" fill="none" stroke-width="1px"></polygon><polygon class="ever-green-line" points="1059.926 266.926 1076.416 251.866 1070.136 234.771 1049.382 253.724 1059.926 266.926" stroke="#1b1a26" fill="none" stroke-width="1px"></polygon><polygon class="ever-green-line" points="1100.708 317.99 1082.572 268.622 1063.686 271.634 1100.708 317.99" stroke="#1b1a26" fill="none" stroke-width="1px"></polygon><polygon class="ever-green-line" points="1052.884 273.356 1063.686 271.634 1059.926 266.926 1052.884 273.356" stroke="#1b1a26" fill="none" stroke-width="1px"></polygon><polygon class="ever-green-line" points="974.177 194.612 983.504 206.292 999.691 191.503 999.101 190.764 974.177 194.612" stroke="#1b1a26" fill="none" stroke-width="1px"></polygon><polygon class="ever-green-line" points="1175.55 521.722 1177.86 515.837 1174.636 519.232 1175.55 521.722" stroke="#1b1a26" fill="none" stroke-width="1px"></polygon><polygon class="ever-green-line" points="1045.069 183.666 1040.369 178.094 1032.074 185.673 1045.069 183.666" stroke="#1b1a26" fill="none" stroke-width="1px"></polygon><polygon class="ever-green-line" points="1080.324 225.467 1056.219 196.887 1070.136 234.771 1080.324 225.467" stroke="#1b1a26" fill="none" stroke-width="1px"></polygon><polygon class="ever-green-line" points="1022.594 278.187 1038.851 275.594 1033.192 268.509 1022.594 278.187" stroke="#1b1a26" fill="none" stroke-width="1px"></polygon><polygon class="ever-green-line" points="1131.071 537.74 1141.948 536.002 1148.445 519.446 1131.071 537.74" stroke="#1b1a26" fill="none" stroke-width="1px"></polygon><polygon class="ever-green-line" points="1141.856 430.001 1142.951 432.982 1161.948 429.732 1153.078 418.625 1141.856 430.001" stroke="#1b1a26" fill="none" stroke-width="1px"></polygon><polygon class="ever-green-line" points="1109.435 341.748 1099.391 351.4 1110.68 365.536 1116.219 360.214 1109.435 341.748" stroke="#1b1a26" fill="none" stroke-width="1px"></polygon><polygon class="ever-green-line" points="1124.558 382.913 1153.078 418.625 1168.551 402.939 1126.522 350.314 1116.219 360.214 1124.558 382.913" stroke="#1b1a26" fill="none" stroke-width="1px"></polygon><polygon class="ever-green-line" points="1192.961 -1.5 1175.56 -1.5 1177.37 0.564 1212.761 18.271 1192.961 -1.5" stroke="#1b1a26" fill="none" stroke-width="1px"></polygon><polygon class="ever-green-line" points="1243.628 33.5 1243.305 33.554 1243.931 33.867 1243.628 33.5" stroke="#1b1a26" fill="none" stroke-width="1px"></polygon><polygon class="ever-green-line" points="1284.885 54.358 1278.053 48.755 1281.241 52.535 1284.885 54.358" stroke="#1b1a26" fill="none" stroke-width="1px"></polygon><polygon class="ever-green-line" points="1248.568 13.794 1228.874 -1.5 1227.512 -1.5 1264.888 37.957 1278.053 48.755 1248.568 13.794" stroke="#1b1a26" fill="none" stroke-width="1px"></polygon><polygon class="ever-green-line" points="1353.01 170.833 1352.364 170.067 1352.099 169.959 1353.01 170.833" stroke="#1b1a26" fill="none" stroke-width="1px"></polygon><polygon class="ever-green-line" points="1325.135 562.548 1318.226 561.5 1315.744 564.61 1324.572 565.948 1325.135 562.548" stroke="#1b1a26" fill="none" stroke-width="1px"></polygon><polygon class="ever-green-line" points="1335.051 345.579 1293.622 333.586 1330.168 375.078 1335.051 345.579" stroke="#1b1a26" fill="none" stroke-width="1px"></polygon><polygon class="ever-green-line" points="1318.927 507.739 1315.285 507.041 1314.83 508.393 1318.927 507.739" stroke="#1b1a26" fill="none" stroke-width="1px"></polygon><polygon class="ever-green-line" points="1173.489 -1.378 1187.225 11.798 1177.37 0.564 1173.489 -1.378" stroke="#1b1a26" fill="none" stroke-width="1px"></polygon><polygon class="ever-green-line" points="1207.67 -1.5 1201.518 -1.5 1226.989 25.39 1232.8 28.298 1207.67 -1.5" stroke="#1b1a26" fill="none" stroke-width="1px"></polygon><polygon class="ever-green-line" points="1173.246 -1.5 1173.489 -1.378 1173.362 -1.5 1173.246 -1.5" stroke="#1b1a26" fill="none" stroke-width="1px"></polygon><polygon class="ever-green-line" points="1167.612 946.382 1184.434 922.77 1190.677 877.761 1167.612 946.382" stroke="#1b1a26" fill="none" stroke-width="1px"></polygon><polygon class="ever-green-line" points="1204.915 5.749 1218.353 21.069 1223.646 23.718 1204.915 5.749" stroke="#1b1a26" fill="none" stroke-width="1px"></polygon><polygon class="ever-green-line" points="1197.358 -1.5 1204.915 5.749 1198.556 -1.5 1197.358 -1.5" stroke="#1b1a26" fill="none" stroke-width="1px"></polygon><polygon class="ever-green-line" points="1251.352 50.295 1237.984 34.444 1235.897 34.794 1242.897 42.185 1251.352 50.295" stroke="#1b1a26" fill="none" stroke-width="1px"></polygon><polygon class="ever-green-line" points="1298.085 103.471 1317.1 122.458 1304.608 107.333 1298.451 100.833 1298.085 103.471" stroke="#1b1a26" fill="none" stroke-width="1px"></polygon><polygon class="ever-green-line" points="1298.085 103.471 1286.138 91.541 1297.819 105.392 1298.085 103.471" stroke="#1b1a26" fill="none" stroke-width="1px"></polygon><polygon class="ever-green-line" points="1298.451 100.833 1298.565 100.016 1280.945 78.682 1251.352 50.295 1257.624 57.731 1298.451 100.833" stroke="#1b1a26" fill="none" stroke-width="1px"></polygon><polygon class="ever-green-line" points="1297.068 110.806 1319.038 135.852 1326.014 138.823 1297.819 105.392 1297.068 110.806" stroke="#1b1a26" fill="none" stroke-width="1px"></polygon><polygon class="ever-green-line" points="1286.138 91.541 1257.624 57.731 1242.897 42.185 1235.297 34.894 1231.097 35.597 1238.046 43.52 1286.138 91.541" stroke="#1b1a26" fill="none" stroke-width="1px"></polygon><polygon class="ever-green-line" points="1238.046 43.52 1230.253 35.738 1214.865 38.313 1296.289 116.422 1297.068 110.806 1238.046 43.52" stroke="#1b1a26" fill="none" stroke-width="1px"></polygon><polygon class="ever-green-line" points="1047.281 771.782 1051.212 767.222 1068.434 723.336 1047.281 771.782" stroke="#1b1a26" fill="none" stroke-width="1px"></polygon><polygon class="ever-green-line" points="1332.275 150.942 1319.038 135.852 1314.553 133.942 1332.275 150.942" stroke="#1b1a26" fill="none" stroke-width="1px"></polygon><polygon class="ever-green-line" points="245.53 515.153 306.084 353.317 238.5 397.971 245.53 515.153" stroke="#1b1a26" fill="none" stroke-width="1px"></polygon><polygon class="ever-green-line" points="465.793 273.103 419.741 391.649 605.708 251.501 465.793 273.103" stroke="#1b1a26" fill="none" stroke-width="1px"></polygon><polygon class="ever-green-line" points="205.104 389.069 226.152 332.429 203.5 346.651 205.104 389.069" stroke="#1b1a26" fill="none" stroke-width="1px"></polygon><polygon class="ever-green-line" points="345.812 123.958 489.286 48.288 268.634 87.851 247.628 98.1 213.05 193.98 293.34 151.633 300.796 131.569 345.812 123.958" stroke="#1b1a26" fill="none" stroke-width="1px"></polygon><polygon class="ever-green-line" points="149.371 292.877 146.066 379.714 213.05 193.98 178.456 212.225 149.371 292.877" stroke="#1b1a26" fill="none" stroke-width="1px"></polygon><polygon class="ever-green-line" points="999.639 -0.183 1010.071 11.66 1022.51 9.557 999.639 -0.183" stroke="#1b1a26" fill="none" stroke-width="1px"></polygon><polygon class="ever-green-line" points="151.908 226.227 178.456 212.225 213.631 114.688 99.494 170.377 76.96 493.671 149.371 292.877 151.908 226.227" stroke="#1b1a26" fill="none" stroke-width="1px"></polygon><polygon class="ever-green-line" points="250.128 91.169 268.634 87.851 284.91 79.909 222.112 91.169 213.631 114.688 247.628 98.1 250.128 91.169" stroke="#1b1a26" fill="none" stroke-width="1px"></polygon><polygon class="ever-green-line" points="734.063 4.399 731.061 -0.084 503.713 40.679 489.286 48.288 734.063 4.399" stroke="#1b1a26" fill="none" stroke-width="1px"></polygon><polygon class="ever-green-line" points="138.932 567.131 129.063 826.422 213.144 601.707 205.104 389.069 138.932 567.131" stroke="#1b1a26" fill="none" stroke-width="1px"></polygon><polygon class="ever-green-line" points="753.154 1.562 752.804 1.039 734.063 4.399 738.375 10.841 753.154 1.562" stroke="#1b1a26" fill="none" stroke-width="1px"></polygon><polygon class="ever-green-line" points="213.144 601.707 224.231 894.926 262.417 796.63 245.53 515.153 213.144 601.707" stroke="#1b1a26" fill="none" stroke-width="1px"></polygon><polygon class="ever-green-line" points="70.25 589.94 56.35 789.351 138.932 567.131 146.066 379.714 70.25 589.94" stroke="#1b1a26" fill="none" stroke-width="1px"></polygon><polygon class="ever-green-line" points="881.575 43.604 874.383 34.599 857.308 37.486 866.635 54.863 881.575 43.604" stroke="#1b1a26" fill="none" stroke-width="1px"></polygon><polygon class="ever-green-line" points="909.312 22.701 888.901 -1.5 845.553 -1.5 874.383 34.599 899.059 30.428 909.312 22.701" stroke="#1b1a26" fill="none" stroke-width="1px"></polygon><polygon class="ever-green-line" points="779.318 40.645 799.75 27.145 778.605 -1.5 766.965 -1.5 754.459 0.742 753.154 1.562 779.318 40.645" stroke="#1b1a26" fill="none" stroke-width="1px"></polygon><polygon class="ever-green-line" points="857.308 37.486 838.143 1.778 826.382 9.549 849.718 38.769 857.308 37.486" stroke="#1b1a26" fill="none" stroke-width="1px"></polygon><polygon class="ever-green-line" points="936.491 24.1 925.208 10.721 909.312 22.701 913.736 27.947 936.491 24.1" stroke="#1b1a26" fill="none" stroke-width="1px"></polygon><polygon class="ever-green-line" points="834.256 41.383 815.878 16.489 799.75 27.145 812.924 44.99 834.256 41.383" stroke="#1b1a26" fill="none" stroke-width="1px"></polygon><polygon class="ever-green-line" points="979.791 340.106 966.76 352.006 1018.433 429.194 1031.211 416.916 979.791 340.106" stroke="#1b1a26" fill="none" stroke-width="1px"></polygon><polygon class="ever-green-line" points="1028.611 444.398 1018.433 429.194 986.672 459.713 1018.303 454.303 1028.611 444.398" stroke="#1b1a26" fill="none" stroke-width="1px"></polygon><polygon class="ever-green-line" points="386.662 476.8 419.741 391.649 274.5 501.105 299.033 702.373 324.432 636.992 310.5 536.002 386.662 476.8" stroke="#1b1a26" fill="none" stroke-width="1px"></polygon><polygon class="ever-green-line" points="1017.725 555.841 1068.652 504.213 1033.501 451.703 1018.303 454.303 775.443 687.67 693.869 908.343 721.283 1019.5 764.006 1019.5 719.5 858.17 978.329 595.779 992.033 559.944 1017.725 555.841" stroke="#1b1a26" fill="none" stroke-width="1px"></polygon><polygon class="ever-green-line" points="775.443 687.67 789.766 648.923 639.5 793.315 678.275 950.526 693.869 908.343 665.5 793.315 775.443 687.67" stroke="#1b1a26" fill="none" stroke-width="1px"></polygon><polygon class="ever-green-line" points="946.467 290.327 927.496 293.353 957.276 337.837 970.306 325.938 946.467 290.327" stroke="#1b1a26" fill="none" stroke-width="1px"></polygon><polygon class="ever-green-line" points="509.987 638.887 579.516 457.139 398.5 612.294 438.324 826.213 466.152 753.471 452.5 691.406 509.987 638.887" stroke="#1b1a26" fill="none" stroke-width="1px"></polygon><polygon class="ever-green-line" points="592.687 422.71 623.635 341.811 701.573 329.382 833.462 216.337 694.056 237.861 386.662 476.8 324.432 636.992 373.803 994.87 420.166 873.679 371.5 612.294 592.687 422.71" stroke="#1b1a26" fill="none" stroke-width="1px"></polygon><polygon class="ever-green-line" points="482.66 710.319 496.018 675.402 478.5 691.406 482.66 710.319" stroke="#1b1a26" fill="none" stroke-width="1px"></polygon><polygon class="ever-green-line" points="911.398 295.92 927.496 293.353 922.453 285.819 911.398 295.92" stroke="#1b1a26" fill="none" stroke-width="1px"></polygon><polygon class="ever-green-line" points="509.987 638.887 496.018 675.402 911.398 295.92 879.899 300.943 509.987 638.887" stroke="#1b1a26" fill="none" stroke-width="1px"></polygon><polygon class="ever-green-line" points="1283.079 211.653 1303.183 233.44 1349.726 226.017 1325.143 195.441 1287.188 182.027 1283.079 211.653" stroke="#1b1a26" fill="none" stroke-width="1px"></polygon><polygon class="ever-green-line" points="1347.211 167.969 1352.099 169.959 1332.275 150.942 1347.211 167.969" stroke="#1b1a26" fill="none" stroke-width="1px"></polygon><polygon class="ever-green-line" points="1292.242 145.595 1311.442 153.41 1293.928 133.443 1292.242 145.595" stroke="#1b1a26" fill="none" stroke-width="1px"></polygon><polygon class="ever-green-line" points="1326.014 138.823 1352.364 170.067 1358.475 172.555 1333.114 141.847 1326.014 138.823" stroke="#1b1a26" fill="none" stroke-width="1px"></polygon><polygon class="ever-green-line" points="1325.143 195.441 1357.983 207.049 1358.064 206.56 1346.589 193.478 1314.424 182.11 1325.143 195.441" stroke="#1b1a26" fill="none" stroke-width="1px"></polygon><polygon class="ever-green-line" points="977.548 17.5 992.566 23.613 990.392 17.696 988.315 15.338 936.491 24.1 949.387 39.39 977.548 17.5" stroke="#1b1a26" fill="none" stroke-width="1px"></polygon><polygon class="ever-green-line" points="1339.049 144.375 1340.132 144.836 1313.654 116.883 1323.651 128.999 1339.049 144.375" stroke="#1b1a26" fill="none" stroke-width="1px"></polygon><polygon class="ever-green-line" points="1230.849 262.318 1274.152 276.004 1275.202 268.433 1221.204 251.367 1230.849 262.318" stroke="#1b1a26" fill="none" stroke-width="1px"></polygon><polygon class="ever-green-line" points="1196.207 251.369 1251.169 313.77 1268.228 318.708 1269.9 306.654 1230.849 262.318 1196.207 251.369" stroke="#1b1a26" fill="none" stroke-width="1px"></polygon><polygon class="ever-green-line" points="1094.957 543.507 1017.725 555.841 978.329 595.779 912.524 767.852 1107.623 562.428 1094.957 543.507" stroke="#1b1a26" fill="none" stroke-width="1px"></polygon><polygon class="ever-green-line" points="1275.202 268.433 1344.211 290.244 1345.944 279.777 1324.828 256.895 1278.827 242.306 1275.202 268.433" stroke="#1b1a26" fill="none" stroke-width="1px"></polygon><polygon class="ever-green-line" points="1314.07 245.237 1303.183 233.44 1285.676 236.232 1314.07 245.237" stroke="#1b1a26" fill="none" stroke-width="1px"></polygon><polygon class="ever-green-line" points="1317.1 122.458 1333.114 141.847 1334.867 142.594 1323.651 128.999 1317.1 122.458" stroke="#1b1a26" fill="none" stroke-width="1px"></polygon><polygon class="ever-green-line" points="1282.325 120.216 1211.044 38.953 1135.389 51.612 1144.544 61.533 1282.325 120.216" stroke="#1b1a26" fill="none" stroke-width="1px"></polygon><polygon class="ever-green-line" points="1187.225 11.798 1211.044 38.953 1214.865 38.313 1187.225 11.798" stroke="#1b1a26" fill="none" stroke-width="1px"></polygon><polygon class="ever-green-line" points="1135.389 51.612 1086.584 -1.275 1022.51 9.557 1125.239 53.311 1135.389 51.612" stroke="#1b1a26" fill="none" stroke-width="1px"></polygon><polygon class="ever-green-line" points="1235.897 34.794 1226.989 25.39 1223.646 23.718 1235.297 34.894 1235.897 34.794" stroke="#1b1a26" fill="none" stroke-width="1px"></polygon><polygon class="ever-green-line" points="997.301 25.541 1036.266 41.401 1010.071 11.66 989.455 15.146 990.392 17.696 997.301 25.541" stroke="#1b1a26" fill="none" stroke-width="1px"></polygon><polygon class="ever-green-line" points="1286.656 84.161 1246.025 34.914 1243.931 33.867 1280.945 78.682 1286.656 84.161" stroke="#1b1a26" fill="none" stroke-width="1px"></polygon><polygon class="ever-green-line" points="1298.734 98.799 1299.107 96.105 1286.656 84.161 1298.734 98.799" stroke="#1b1a26" fill="none" stroke-width="1px"></polygon><polygon class="ever-green-line" points="1301.772 76.896 1301.774 76.881 1281.241 52.535 1276.404 50.115 1301.772 76.896" stroke="#1b1a26" fill="none" stroke-width="1px"></polygon><polygon class="ever-green-line" points="1264.888 37.957 1216.779 -1.5 1215.98 -1.5 1246.025 34.914 1276.404 50.115 1264.888 37.957" stroke="#1b1a26" fill="none" stroke-width="1px"></polygon><polygon class="ever-green-line" points="1304.608 107.333 1313.654 116.883 1298.734 98.799 1298.565 100.016 1304.608 107.333" stroke="#1b1a26" fill="none" stroke-width="1px"></polygon><polygon class="ever-green-line" points="1243.305 33.554 1232.8 28.298 1237.984 34.444 1243.305 33.554" stroke="#1b1a26" fill="none" stroke-width="1px"></polygon><polygon class="ever-green-line" points="1358.475 172.555 1362.822 177.818 1363.007 176.7 1360.149 173.236 1358.475 172.555" stroke="#1b1a26" fill="none" stroke-width="1px"></polygon><polygon class="ever-green-line" points="1362.179 181.705 1362.475 179.913 1353.01 170.833 1362.179 181.705" stroke="#1b1a26" fill="none" stroke-width="1px"></polygon><polygon class="ever-green-line" points="1311.442 153.41 1346.589 193.478 1359.476 198.033 1361.715 184.505 1347.211 167.969 1311.442 153.41" stroke="#1b1a26" fill="none" stroke-width="1px"></polygon><polygon class="ever-green-line" points="1350.986 156.295 1364.201 169.49 1364.5 167.682 1364.5 158.834 1357.714 152.325 1340.132 144.836 1350.986 156.295" stroke="#1b1a26" fill="none" stroke-width="1px"></polygon><polygon class="ever-green-line" points="1358.721 207.309 1364.5 209.352 1364.5 199.809 1359.476 198.033 1358.064 206.56 1358.721 207.309" stroke="#1b1a26" fill="none" stroke-width="1px"></polygon><polygon class="ever-green-line" points="1339.049 144.375 1334.867 142.594 1360.149 173.236 1363.364 174.544 1364.094 170.133 1350.986 156.295 1339.049 144.375" stroke="#1b1a26" fill="none" stroke-width="1px"></polygon><polygon class="ever-green-line" points="1267.224 325.944 1293.622 333.586 1284.724 323.484 1268.228 318.708 1267.224 325.944" stroke="#1b1a26" fill="none" stroke-width="1px"></polygon><polygon class="ever-green-line" points="1342.968 297.754 1364.5 304.56 1364.5 299.884 1360.295 295.327 1344.211 290.244 1342.968 297.754" stroke="#1b1a26" fill="none" stroke-width="1px"></polygon><polygon class="ever-green-line" points="1360.295 295.327 1364.5 296.656 1364.5 269.477 1348.49 264.399 1345.944 279.777 1360.295 295.327" stroke="#1b1a26" fill="none" stroke-width="1px"></polygon><polygon class="ever-green-line" points="1324.828 256.895 1348.49 264.399 1349.787 256.564 1314.07 245.237 1324.828 256.895" stroke="#1b1a26" fill="none" stroke-width="1px"></polygon><polygon class="ever-green-line" points="1354.982 225.179 1364.5 223.661 1364.5 213.897 1358.721 207.309 1357.983 207.049 1354.982 225.179" stroke="#1b1a26" fill="none" stroke-width="1px"></polygon><polygon class="ever-green-line" points="894.999 813.678 912.524 767.852 789.5 897.386 821.652 1005.472 836.276 967.231 815.5 897.386 894.999 813.678" stroke="#1b1a26" fill="none" stroke-width="1px"></polygon><polygon class="ever-green-line" points="1303.109 47.981 1242.779 -1.5 1235.67 -1.5 1248.568 13.794 1304.5 57.229 1303.599 63.722 1339.409 81.639 1314.586 57.955 1303.109 47.981" stroke="#1b1a26" fill="none" stroke-width="1px"></polygon><polygon class="ever-green-line" points="1252.271 -1.5 1263.668 9.374 1314.899 36.387 1270.386 -1.5 1252.271 -1.5" stroke="#1b1a26" fill="none" stroke-width="1px"></polygon><polygon class="ever-green-line" points="1274.175 -1.5 1322.197 40.235 1338.53 48.847 1281.597 -1.5 1274.175 -1.5" stroke="#1b1a26" fill="none" stroke-width="1px"></polygon><polygon class="ever-green-line" points="1347.15 -1.5 1364.5 9.411 1364.5 1.671 1359.796 -1.5 1347.15 -1.5" stroke="#1b1a26" fill="none" stroke-width="1px"></polygon><polygon class="ever-green-line" points="1298.999 -1.5 1364.5 51.22 1364.5 46.399 1301.591 -1.5 1298.999 -1.5" stroke="#1b1a26" fill="none" stroke-width="1px"></polygon><polygon class="ever-green-line" points="1299.107 96.105 1357.714 152.325 1364.5 155.215 1364.5 151.257 1301.902 77.033 1301.772 76.896 1299.107 96.105" stroke="#1b1a26" fill="none" stroke-width="1px"></polygon><polygon class="ever-green-line" points="1243.045 -1.5 1251.004 2.696 1246.175 -1.5 1243.045 -1.5" stroke="#1b1a26" fill="none" stroke-width="1px"></polygon><polygon class="ever-green-line" points="1301.902 77.033 1364.5 143.117 1364.5 119.655 1302.854 69.095 1301.774 76.881 1301.902 77.033" stroke="#1b1a26" fill="none" stroke-width="1px"></polygon><polygon class="ever-green-line" points="1302.854 69.095 1303.599 63.722 1284.885 54.358 1302.854 69.095" stroke="#1b1a26" fill="none" stroke-width="1px"></polygon><polygon class="ever-green-line" points="1345.132 84.502 1351.562 87.719 1310.394 53.955 1314.586 57.955 1345.132 84.502" stroke="#1b1a26" fill="none" stroke-width="1px"></polygon><polygon class="ever-green-line" points="1269.9 306.654 1284.724 323.484 1336.24 338.398 1342.968 297.754 1274.152 276.004 1269.9 306.654" stroke="#1b1a26" fill="none" stroke-width="1px"></polygon><polygon class="ever-green-line" points="1303.109 47.981 1310.394 53.955 1263.668 9.374 1251.004 2.696 1303.109 47.981" stroke="#1b1a26" fill="none" stroke-width="1px"></polygon><polygon class="ever-green-line" points="1353.97 231.295 1354.982 225.179 1349.726 226.017 1353.97 231.295" stroke="#1b1a26" fill="none" stroke-width="1px"></polygon><polygon class="ever-green-line" points="1275.778 794.554 1275.66 794.719 1252.639 860.452 1281.566 825.741 1283.327 815.104 1275.778 794.554" stroke="#1b1a26" fill="none" stroke-width="1px"></polygon><polygon class="ever-green-line" points="1080.199 859.732 1022.561 1019.5 1041.911 1019.5 1057.826 993.84 1127.654 800.274 1080.199 859.732" stroke="#1b1a26" fill="none" stroke-width="1px"></polygon><polygon class="ever-green-line" points="1214.833 703.626 1210.795 696.103 1162.158 757.043 1096.287 931.83 1208.094 751.565 1208.246 751.112 1214.833 703.626" stroke="#1b1a26" fill="none" stroke-width="1px"></polygon><polygon class="ever-green-line" points="1120.278 1012.823 1118.034 1019.5 1120.094 1019.5 1158.543 973.363 1167.612 946.382 1120.278 1012.823" stroke="#1b1a26" fill="none" stroke-width="1px"></polygon><polygon class="ever-green-line" points="1184.434 922.77 1181.184 946.194 1249.121 864.673 1256.173 822.072 1184.434 922.77" stroke="#1b1a26" fill="none" stroke-width="1px"></polygon><polygon class="ever-green-line" points="1208.209 751.38 1208.094 751.565 1143.503 943.728 1190.72 877.45 1208.209 751.38" stroke="#1b1a26" fill="none" stroke-width="1px"></polygon><polygon class="ever-green-line" points="1130.145 566.079 1104.466 593.118 1076.021 650.996 998.657 828.186 1024.894 797.751 1096.035 652.999 1130.145 566.079" stroke="#1b1a26" fill="none" stroke-width="1px"></polygon><polygon class="ever-green-line" points="1029.073 894.975 1006.828 951.66 1080.199 859.732 1099.166 807.156 1029.073 894.975" stroke="#1b1a26" fill="none" stroke-width="1px"></polygon><polygon class="ever-green-line" points="1098.591 599.304 894.999 813.678 836.276 967.231 851.824 1019.5 883.9 1019.5 869.5 978.009 976.054 854.406 1076.021 650.996 1098.591 599.304" stroke="#1b1a26" fill="none" stroke-width="1px"></polygon><polygon class="ever-green-line" points="1051.212 767.222 974.002 963.974 1029.073 894.975 1102.602 707.609 1051.212 767.222" stroke="#1b1a26" fill="none" stroke-width="1px"></polygon><polygon class="ever-green-line" points="1024.894 797.751 915.91 1019.5 929.684 1019.5 950.517 993.398 1047.281 771.782 1024.894 797.751" stroke="#1b1a26" fill="none" stroke-width="1px"></polygon><polygon class="ever-green-line" points="1250.738 1011.969 1249.491 1019.5 1303.834 1019.5 1308.28 996.496 1318.586 907.276 1250.738 1011.969" stroke="#1b1a26" fill="none" stroke-width="1px"></polygon><polygon class="ever-green-line" points="1357.832 567.506 1363.744 516.325 1333.738 510.576 1325.135 562.548 1357.832 567.506" stroke="#1b1a26" fill="none" stroke-width="1px"></polygon><polygon class="ever-green-line" points="1333.738 510.576 1334.622 505.232 1318.927 507.739 1333.738 510.576" stroke="#1b1a26" fill="none" stroke-width="1px"></polygon><polygon class="ever-green-line" points="1338.702 437.373 1345.584 439.018 1346.572 433.044 1340.634 431.625 1338.702 437.373" stroke="#1b1a26" fill="none" stroke-width="1px"></polygon><polygon class="ever-green-line" points="1305.895 752.279 1290.043 774.53 1283.327 815.104 1285.5 821.02 1281.566 825.741 1255.292 984.456 1329.094 747.902 1305.895 752.279" stroke="#1b1a26" fill="none" stroke-width="1px"></polygon><polygon class="ever-green-line" points="1309.096 659.433 1347.952 653.04 1357.436 570.932 1324.572 565.948 1309.096 659.433" stroke="#1b1a26" fill="none" stroke-width="1px"></polygon><polygon class="ever-green-line" points="1351.5 399.297 1348.652 407.77 1350.669 408.294 1352.517 397.135 1349.978 397.569 1351.5 399.297" stroke="#1b1a26" fill="none" stroke-width="1px"></polygon><polygon class="ever-green-line" points="1359.862 352.762 1361.051 345.58 1336.24 338.398 1335.051 345.579 1359.862 352.762" stroke="#1b1a26" fill="none" stroke-width="1px"></polygon><polygon class="ever-green-line" points="1350.946 652.547 1347.952 653.04 1347.441 657.468 1350.946 652.547" stroke="#1b1a26" fill="none" stroke-width="1px"></polygon><polygon class="ever-green-line" points="1328.473 892.019 1357.359 742.569 1337.171 746.378 1318.586 907.276 1328.473 892.019" stroke="#1b1a26" fill="none" stroke-width="1px"></polygon><polygon class="ever-green-line" points="1337.171 746.378 1341.639 707.692 1329.094 747.902 1337.171 746.378" stroke="#1b1a26" fill="none" stroke-width="1px"></polygon><polygon class="ever-green-line" points="1341.639 707.692 1344.74 697.754 1342.409 701.025 1341.639 707.692" stroke="#1b1a26" fill="none" stroke-width="1px"></polygon><polygon class="ever-green-line" points="1231.097 35.597 1218.353 21.069 1212.761 18.271 1230.253 35.738 1231.097 35.597" stroke="#1b1a26" fill="none" stroke-width="1px"></polygon><polygon class="ever-green-line" points="1190.72 877.45 1190.677 877.761 1190.836 877.288 1190.72 877.45" stroke="#1b1a26" fill="none" stroke-width="1px"></polygon><polygon class="ever-green-line" points="1326.5 399.297 1325.828 401.297 1325.759 401.712 1349.978 397.569 1330.168 375.078 1326.213 398.971 1326.5 399.297" stroke="#1b1a26" fill="none" stroke-width="1px"></polygon><polygon class="ever-green-line" points="1096.035 652.999 1068.434 723.336 1123.899 596.305 1096.035 652.999" stroke="#1b1a26" fill="none" stroke-width="1px"></polygon><polygon class="ever-green-line" points="1289.436 755.385 1275.747 794.471 1275.778 794.554 1290.043 774.53 1293.334 754.649 1289.436 755.385" stroke="#1b1a26" fill="none" stroke-width="1px"></polygon><polygon class="ever-green-line" points="1130.486 565.21 1130.145 566.079 1130.686 565.509 1130.486 565.21" stroke="#1b1a26" fill="none" stroke-width="1px"></polygon><polygon class="ever-green-line" points="1220.597 714.366 1208.246 751.112 1208.209 751.38 1225.5 723.501 1220.597 714.366" stroke="#1b1a26" fill="none" stroke-width="1px"></polygon><polygon class="ever-green-line" points="1266.932 770.475 1264.043 774.53 1256.173 822.072 1275.66 794.719 1275.747 794.471 1266.932 770.475" stroke="#1b1a26" fill="none" stroke-width="1px"></polygon><polygon class="ever-green-line" points="1308.537 505.748 1315.285 507.041 1338.702 437.373 1320.573 433.041 1308.537 505.748" stroke="#1b1a26" fill="none" stroke-width="1px"></polygon><polygon class="ever-green-line" points="1232.887 677.802 1230.868 672.305 1229.627 672.509 1216.945 688.398 1214.833 703.626 1220.597 714.366 1232.887 677.802" stroke="#1b1a26" fill="none" stroke-width="1px"></polygon><polygon class="ever-green-line" points="1218.905 674.273 1203.159 676.864 1201.551 678.879 1210.795 696.103 1216.945 688.398 1218.905 674.273" stroke="#1b1a26" fill="none" stroke-width="1px"></polygon><polygon class="ever-green-line" points="1150.907 584.519 1102.602 707.609 1158.449 642.826 1167.997 616.361 1150.907 584.519" stroke="#1b1a26" fill="none" stroke-width="1px"></polygon><polygon class="ever-green-line" points="1173.087 625.846 1158.449 642.826 1099.166 807.156 1146.619 747.703 1183.547 645.335 1173.087 625.846" stroke="#1b1a26" fill="none" stroke-width="1px"></polygon><polygon class="ever-green-line" points="1146.619 747.703 1127.654 800.274 1162.158 757.043 1182.727 702.463 1146.619 747.703" stroke="#1b1a26" fill="none" stroke-width="1px"></polygon><polygon class="ever-green-line" points="1315.744 564.61 1299.208 562.102 1294.357 591.406 1315.744 564.61" stroke="#1b1a26" fill="none" stroke-width="1px"></polygon><polygon class="ever-green-line" points="1321.562 427.068 1340.634 431.625 1348.652 407.77 1325.743 401.81 1321.562 427.068" stroke="#1b1a26" fill="none" stroke-width="1px"></polygon><polygon class="ever-green-line" points="1299.208 562.102 1301.567 547.852 1296.895 561.751 1299.208 562.102" stroke="#1b1a26" fill="none" stroke-width="1px"></polygon><polygon class="ever-green-line" points="1265.403 766.314 1266.932 770.475 1297.913 726.987 1309.096 659.433 1282.368 663.831 1265.403 766.314" stroke="#1b1a26" fill="none" stroke-width="1px"></polygon><polygon class="ever-green-line" points="1050.833 398.061 1031.211 416.916 1041.389 432.119 1059.679 414.544 1050.833 398.061" stroke="#1b1a26" fill="none" stroke-width="1px"></polygon><polygon class="ever-green-line" points="1041.389 432.119 1028.611 444.398 1033.501 451.703 1052.342 448.48 1041.389 432.119" stroke="#1b1a26" fill="none" stroke-width="1px"></polygon><polygon class="ever-green-line" points="1081.162 491.531 1068.652 504.213 1094.957 543.507 1113.928 540.477 1081.162 491.531" stroke="#1b1a26" fill="none" stroke-width="1px"></polygon><polygon class="ever-green-line" points="1301.567 547.852 1314.83 508.393 1307.916 509.497 1301.567 547.852" stroke="#1b1a26" fill="none" stroke-width="1px"></polygon><polygon class="ever-green-line" points="1111.901 568.819 1098.591 599.304 1104.466 593.118 1114.5 572.701 1111.901 568.819" stroke="#1b1a26" fill="none" stroke-width="1px"></polygon><polygon class="ever-green-line" points="1119.941 549.458 1107.623 562.428 1111.901 568.819 1120.191 549.832 1119.941 549.458" stroke="#1b1a26" fill="none" stroke-width="1px"></polygon><polygon class="ever-green-line" points="1305.895 752.279 1342.409 701.025 1347.441 657.468 1297.913 726.987 1293.334 754.649 1305.895 752.279" stroke="#1b1a26" fill="none" stroke-width="1px"></polygon></g></svg>