<?xml version="1.0" encoding="utf-8"?>
<!-- Generator: Adobe Illustrator 16.0.0, SVG Export Plug-In . SVG Version: 6.00 Build 0)  -->
<!DOCTYPE svg PUBLIC "-//W3C//DTD SVG 1.1//EN" "http://www.w3.org/Graphics/SVG/1.1/DTD/svg11.dtd">
<svg version="1.1" id="Layer_1" xmlns="http://www.w3.org/2000/svg" xmlns:xlink="http://www.w3.org/1999/xlink" x="0px" y="0px"
	 width="200px" height="200px" viewBox="0 0 200 200" enable-background="new 0 0 200 200" xml:space="preserve">
<path fill="#FFDD00" d="M175.57,45.999c0-6.466-5.242-11.707-11.708-11.707s-11.708,5.241-11.708,11.707
	c0,1.415,0.264,2.765,0.724,4.021l-30.376,50.978L80.265,66.042c-1.683-1.392-3.911-1.931-6.045-1.461
	c-2.132,0.47-3.929,1.897-4.869,3.868l-35.427,74.23c-5.042,1.306-8.77,5.871-8.77,11.32c0,6.467,5.242,11.709,11.708,11.709
	s11.708-5.242,11.708-11.709c0-2.124-0.574-4.11-1.563-5.827l31.222-65.418l41.608,34.437c1.594,1.319,3.686,1.877,5.725,1.524
	s3.822-1.578,4.882-3.355l34.381-57.7C170.839,57.169,175.57,52.141,175.57,45.999z"/>
</svg>
